<svg width="320" height="198" viewBox="0 0 320 198" fill="none" xmlns="http://www.w3.org/2000/svg">
<rect x="41.1173" y="27.4116" width="200.223" height="28.6034" rx="14.3017" fill="#E6E6E6"/>
<path d="M21.4525 129.609C21.4525 106.407 39.5871 87.5978 61.9573 87.5978H269.365C291.735 87.5978 309.87 106.407 309.87 129.609C309.87 152.811 291.735 171.62 269.365 171.62H61.9573C39.5871 171.62 21.4525 152.811 21.4525 129.609Z" fill="#E6E6E6"/>
<path d="M91.5459 88.7896C91.5459 78.5873 99.52 70.3167 109.357 70.3167H232.307C242.144 70.3167 250.118 78.5873 250.118 88.7896C250.118 98.992 242.144 107.263 232.307 107.263H109.357C99.52 107.263 91.5459 98.992 91.5459 88.7896Z" fill="#E6E6E6"/>
<circle cx="192.775" cy="139.143" r="46.1825" fill="white"/>
<path d="M174.302 136.462C161.43 135.27 129.013 156.822 114.413 167.747L301.527 167.151L286.331 155.829C270.6 144.626 243.426 126.927 230.019 126.927C213.631 126.927 209.305 143.713 193.966 142.719C185.924 142.198 187.173 137.654 174.302 136.462Z" fill="#ADADAD"/>
<rect x="10.7263" y="159.702" width="299.143" height="11.9181" rx="5.95903" fill="#ADADAD"/>
<rect x="97.7281" y="49.46" width="122.16" height="19.0689" rx="9.53445" transform="rotate(90 97.7281 49.46)" fill="#ADADAD"/>
<path d="M55.2925 76.2756C50.5052 76.2756 46.4092 79.6763 45.9046 84.4368C44.7491 95.3371 44 114.909 50.9493 129.013C56.3962 140.068 68.1192 146.441 77.2498 149.888C83.5866 152.28 89.6831 147.267 89.6831 140.493C89.6831 136.375 87.366 132.614 83.7761 130.595C78.0815 127.393 69.9535 122.434 67.3367 118.883C64.6367 115.218 64.9207 98.4471 65.457 87.0715C65.7316 81.2448 61.1256 76.2756 55.2925 76.2756Z" fill="#ADADAD"/>
<path d="M119.294 76.2756C124.175 76.2756 128.293 79.8947 128.376 84.7746C128.507 92.4673 127.705 103.544 122.756 109.944C118.152 115.898 107.155 120.2 98.5625 122.796C92.6372 124.587 87.0019 119.988 87.0019 113.798C87.0019 109.261 90.1184 105.343 94.3659 103.749C98.6463 102.143 103.611 99.7688 105.773 96.8343C107.494 94.4987 108.302 90.5908 108.657 86.8056C109.189 81.1497 113.613 76.2756 119.294 76.2756Z" fill="#ADADAD"/>
</svg>
