<svg width="169" height="33" viewBox="0 0 169 33" fill="none" xmlns="http://www.w3.org/2000/svg">
<mask id="path-1-inside-1_11336_1245" fill="white">
<path d="M9.49136 7.91213C10.353 8.82479 12.3349 9.24412 18.0712 9.71278C20.7424 9.93478 22.1087 10.0951 22.7488 10.2801C23.0935 10.3664 23.7582 10.5021 24.226 10.5761C25.2846 10.7364 27.525 11.4641 28.3251 11.9081C29.2483 12.4261 29.8269 13.1414 29.913 13.8937C30.0238 14.8557 29.7284 15.4847 28.6082 16.607C28.0912 17.125 27.4142 17.7294 27.0941 17.9514C26.7618 18.1734 26.2448 18.531 25.9247 18.7407C24.3368 19.826 20.4839 21.676 18.7236 22.2063C18.0589 22.4037 17.8619 22.1817 18.182 21.639C18.8344 20.529 18.9821 19.8384 18.7482 18.975C18.5882 18.3707 17.825 17.4704 17.148 17.1004L17.113 17.0809C16.1701 16.5547 15.9489 16.4313 15.5354 16.1754C15.2892 16.0151 14.8461 15.8301 14.5506 15.7561C14.2552 15.6697 13.7628 15.4724 13.4551 15.3121C13.1473 15.1517 12.8027 15.0161 12.6796 15.0161C12.5565 15.0161 12.0764 14.8434 11.6086 14.6461C11.1409 14.4364 10.6608 14.2761 10.5254 14.2761C10.4023 14.2761 10.0453 14.1404 9.73755 13.9801C9.44212 13.8197 9.06052 13.6471 8.88819 13.5977C7.74339 13.2401 5.76154 12.0931 5.10913 11.4024C4.62905 10.8968 4.09974 9.82378 4.09974 9.36745C4.11205 8.68912 5.04758 7.39413 6.30316 6.34581C7.95265 4.97682 8.29732 4.85349 8.5189 5.55648C8.83354 6.41214 8.77596 7.13562 9.49136 7.91213Z"/>
<path d="M3.27499 12.6974C3.42271 12.7714 3.85355 13.1167 4.23514 13.4621C4.61674 13.8074 5.34301 14.2884 5.8354 14.5351C7.76801 15.4971 8.35887 15.7561 8.53121 15.7561C8.64199 15.7561 8.94974 15.8671 9.20824 16.0151C9.70062 16.2741 10.6731 16.6317 12.3226 17.1744C12.8273 17.3347 13.295 17.532 13.3812 17.606C13.4674 17.6677 13.849 17.8404 14.2306 17.9637C14.9815 18.2227 16.0155 18.938 16.2493 19.3697C16.5448 19.9 16.4463 20.492 15.9539 21.1087C15.6954 21.4293 15.3507 21.713 15.1784 21.7623C14.5999 21.9103 10.5623 20.9977 9.39288 20.455C9.08514 20.3193 8.72816 20.196 8.59276 20.196C8.02651 20.196 5.10913 18.494 4.51827 17.8404C4.03819 17.2977 3.33654 16.1261 3.17652 15.5957C3.09035 15.3121 2.93032 14.8681 2.81954 14.6214C2.53641 13.9554 2.58565 12.5494 2.89339 12.5494C2.95494 12.5494 3.12728 12.6111 3.27499 12.6974Z"/>
<path d="M21.4071 2.97884C24.94 3.49684 28.0174 4.70549 31.0086 6.77747C31.6364 7.1968 33.1382 8.54112 33.6059 9.09612C34.3814 10.0088 35.5755 11.9081 35.6863 12.4138C35.7232 12.5864 35.8955 13.1291 36.0556 13.6224C36.3633 14.5474 36.4372 15.3121 36.2279 15.4477C36.0679 15.5464 35.4586 14.7656 34.9477 14.3501C30.4471 10.6904 25.9116 8.60705 21.5794 7.87513C20.8039 7.73946 19.1175 7.5668 17.825 7.4928C16.5448 7.4188 15.1292 7.28313 14.686 7.18447C14.2429 7.09814 13.5043 6.98714 13.0242 6.93781C11.6702 6.81447 10.7469 6.16081 10.7469 5.32215C10.7469 4.80416 11.4855 3.87917 12.1749 3.53384C12.4826 3.39817 13.3443 3.17617 14.1075 3.05284C14.8707 2.91718 15.6216 2.79384 15.7939 2.76918C16.791 2.59651 19.4745 2.70751 21.4071 2.97884Z"/>
<path d="M34.5045 17.9144C34.8615 18.864 34.8984 19.0614 34.8369 19.863C34.763 20.9853 34.3199 22.009 33.6306 22.6257C31.4689 24.6031 28.837 23.1238 26.5894 24.3646C25.5677 24.9196 25.3092 25.5363 25.1492 27.8796C25.0507 29.1746 25.0138 29.3843 24.7184 29.7666C24.546 30.0009 24.3368 30.1859 24.2506 30.1859C23.6597 30.1859 22.1949 28.5949 20.6685 26.301C19.3883 24.3893 19.3514 24.155 20.2623 23.933C23.9077 22.9861 28.1099 20.498 30.6639 17.6677C31.1932 17.0757 31.9318 15.8424 32.0672 15.2874C32.3568 14.206 34.3285 17.4696 34.5045 17.9144Z"/>
</mask>
<path d="M16.1016 0.59853L16.1027 0.60461L16.1025 0.60463L16.1016 0.59853ZM13.7997 0.894527L13.8005 0.90065L13.8004 0.900654L13.7997 0.894527ZM11.3009 1.38786L11.2986 1.38211L11.2987 1.38209L11.3009 1.38786ZM6.38933 3.57084L6.39298 3.57581L6.39281 3.57593L6.38933 3.57084ZM3.32423 6.09915L3.3288 6.10328L3.32879 6.1033L3.32423 6.09915ZM1.63781 8.60279L1.63245 8.59973L1.63246 8.59973L1.63781 8.60279ZM0.579183 14.0541L0.573149 14.0553L0.573144 14.0553L0.579183 14.0541ZM2.61027 18.753L2.61466 18.7487L2.61469 18.7487L2.61027 18.753ZM15.7939 24.4633L15.7915 24.469L15.7915 24.469L15.7939 24.4633ZM18.0219 26.2393L18.0166 26.2424L18.0165 26.2422L18.0219 26.2393ZM18.9698 27.6083L18.9747 27.6045L18.9747 27.6046L18.9698 27.6083ZM20.053 29.0513L20.0482 29.0551L20.0481 29.0549L20.053 29.0513ZM21.6779 30.7286L21.6737 30.7331L21.6737 30.7331L21.6779 30.7286ZM23.7828 32.2209L23.785 32.2151L23.7851 32.2152L23.7828 32.2209ZM25.1985 32.3566L25.2007 32.3623L25.2007 32.3623L25.1985 32.3566ZM26.811 30.7533L26.8053 30.7509L26.8053 30.7509L26.811 30.7533ZM27.4388 27.3863L27.445 27.3868L27.4449 27.3869L27.4388 27.3863ZM27.7219 26.3133L27.7178 26.3087L27.718 26.3086L27.7219 26.3133ZM29.7653 26.0913L29.7652 26.0851H29.7652L29.7653 26.0913ZM31.6118 26.042L31.6145 26.0481L31.6119 26.0481L31.6118 26.042ZM32.8181 25.4993L32.8207 25.5049L32.8206 25.5049L32.8181 25.4993ZM35.0954 23.896L35.0911 23.8916L35.0911 23.8915L35.0954 23.896ZM36.6957 21.9597L36.701 21.9627L36.7009 21.9629L36.6957 21.9597ZM37.5696 20.1713L37.5752 20.1739L37.5752 20.174L37.5696 20.1713ZM38.4436 16.2741L38.4375 16.2731L38.4375 16.273L38.4436 16.2741ZM38.1359 13.0921L38.1299 13.0936L38.1299 13.0936L38.1359 13.0921ZM36.2648 9.05912L36.2699 9.05563L36.2699 9.05565L36.2648 9.05912ZM32.8304 5.39615L32.8265 5.40091L32.8304 5.39615ZM24.386 1.33852L24.3842 1.34441L24.3842 1.3444L24.386 1.33852ZM16.1016 0.59853L16.1025 0.60463C15.7701 0.653976 14.7237 0.78965 13.8005 0.90065L13.7997 0.894527L13.799 0.888405C14.7222 0.777407 15.7685 0.64175 16.1007 0.59243L16.1016 0.59853ZM13.7997 0.894527L13.8004 0.900654C12.7173 1.02398 11.8193 1.19658 11.3031 1.39362L11.3009 1.38786L11.2987 1.38209C11.8165 1.18447 12.7157 1.01174 13.799 0.888401L13.7997 0.894527ZM11.3009 1.38786L11.3031 1.3936C11.0814 1.47998 10.8597 1.55712 10.6795 1.61266C10.5894 1.64044 10.5097 1.66283 10.4455 1.67829C10.3814 1.69369 10.3323 1.70235 10.3038 1.70235V1.69619V1.69002C10.3307 1.69002 10.3785 1.68172 10.4426 1.6663C10.5064 1.65092 10.5859 1.6286 10.6759 1.60088C10.8558 1.54543 11.0772 1.46839 11.2986 1.38211L11.3009 1.38786ZM10.3038 1.69619V1.70235C10.2479 1.70235 10.1584 1.72137 10.0425 1.75634C9.9267 1.79125 9.78511 1.84186 9.62517 1.90465C9.3053 2.03023 8.9123 2.20437 8.50617 2.39858C7.69378 2.78705 6.82947 3.25551 6.39298 3.57581L6.38933 3.57084L6.38568 3.56586C6.82317 3.24484 7.68837 2.77597 8.50085 2.38745C8.90715 2.19316 9.30043 2.01889 9.62066 1.89317C9.78077 1.83032 9.9227 1.77957 10.0389 1.74453C10.1549 1.70955 10.2459 1.69002 10.3038 1.69002V1.69619ZM6.38933 3.57084L6.39281 3.57593C6.25731 3.66849 6.12178 3.75491 6.01236 3.81821C5.95766 3.84986 5.90941 3.87578 5.8709 3.89381C5.85166 3.90282 5.83475 3.9099 5.82064 3.91475C5.80668 3.91954 5.79492 3.92233 5.78616 3.92233V3.91617V3.91C5.79279 3.91 5.80295 3.90778 5.81664 3.90308C5.83018 3.89844 5.84664 3.89155 5.86567 3.88264C5.90372 3.86482 5.95163 3.8391 6.00618 3.80754C6.11526 3.74443 6.25054 3.65818 6.38585 3.56574L6.38933 3.57084ZM5.78616 3.91617V3.92233C5.77695 3.92233 5.76183 3.92716 5.74067 3.93755C5.7198 3.94779 5.69393 3.963 5.66354 3.98276C5.60279 4.02227 5.52447 4.07967 5.43297 4.15112C5.25001 4.294 5.01469 4.49278 4.76239 4.71627C4.25778 5.16329 3.68557 5.70886 3.3288 6.10328L3.32423 6.09915L3.31966 6.09501C3.67686 5.70011 4.24944 5.15419 4.75422 4.70704C5.00661 4.48346 5.24214 4.28449 5.42538 4.1414C5.51699 4.06986 5.59563 4.01221 5.65682 3.97242C5.6874 3.95253 5.71374 3.93703 5.73524 3.92648C5.75644 3.91606 5.77383 3.91 5.78616 3.91V3.91617ZM3.32423 6.09915L3.32879 6.1033C2.68916 6.80577 2.56634 6.99028 1.64317 8.60585L1.63781 8.60279L1.63246 8.59973C2.55573 6.98399 2.6791 6.79851 3.31967 6.09499L3.32423 6.09915ZM1.63781 8.60279L1.64317 8.60584C1.22508 9.3389 0.889819 10.3588 0.694485 11.3666C0.499133 12.3745 0.443901 13.3695 0.585222 14.0528L0.579183 14.0541L0.573144 14.0553C0.431343 13.3697 0.486898 12.3728 0.682377 11.3643C0.877873 10.3556 1.21349 9.33433 1.63245 8.59973L1.63781 8.60279ZM0.579183 14.0541L0.585216 14.0528C1.11446 16.5561 1.64346 17.7633 2.61466 18.7487L2.61027 18.753L2.60588 18.7574C1.63216 17.7694 1.10254 16.5593 0.57315 14.0553L0.579183 14.0541ZM15.7939 24.4633L15.7963 24.4576C16.2585 24.649 16.7329 24.9392 17.1333 25.2586C17.5337 25.578 17.8606 25.927 18.0274 26.2364L18.0219 26.2393L18.0165 26.2422C17.8509 25.9349 17.5254 25.5871 17.1256 25.2682C16.726 24.9494 16.2525 24.6599 15.7915 24.469L15.7939 24.4633ZM18.0219 26.2393L18.0273 26.2362C18.1625 26.4702 18.5808 27.0866 18.9747 27.6045L18.9698 27.6083L18.9649 27.612C18.5709 27.0939 18.1522 26.477 18.0166 26.2424L18.0219 26.2393ZM18.9698 27.6083L18.9747 27.6046C19.3563 28.1102 19.8487 28.7639 20.058 29.0476L20.053 29.0513L20.0481 29.0549C19.8388 28.7713 19.3465 28.1177 18.9649 27.612L18.9698 27.6083ZM20.053 29.0513L20.0579 29.0475C20.2791 29.3307 21.0051 30.0828 21.6821 30.7241L21.6779 30.7286L21.6737 30.7331C20.9966 30.0917 20.2701 29.3391 20.0482 29.0551L20.053 29.0513ZM21.6779 30.7286L21.6821 30.7241C22.7037 31.6736 23.0722 31.9442 23.785 32.2151L23.7828 32.2209L23.7807 32.2267C23.0655 31.9549 22.6955 31.6829 21.6737 30.7331L21.6779 30.7286ZM23.7828 32.2209L23.7851 32.2152C24.2164 32.388 24.4339 32.4739 24.6113 32.4907C24.788 32.5075 24.9251 32.4558 25.1962 32.3508L25.1985 32.3566L25.2007 32.3623C24.9302 32.467 24.7903 32.5201 24.6101 32.503C24.4305 32.4859 24.211 32.3991 23.7806 32.2266L23.7828 32.2209ZM25.1985 32.3566L25.1962 32.3508C25.4967 32.2341 25.8345 31.988 26.1296 31.6939C26.4247 31.3998 26.6765 31.0582 26.8053 30.7509L26.811 30.7533L26.8167 30.7556C26.687 31.0649 26.4341 31.4078 26.1383 31.7027C25.8426 31.9974 25.5034 32.2447 25.2007 32.3623L25.1985 32.3566ZM26.811 30.7533L26.8053 30.7509C26.9035 30.5172 27.0327 29.9722 27.1512 29.3369C27.2696 28.7019 27.3773 27.9775 27.4327 27.3857L27.4388 27.3863L27.4449 27.3869C27.3895 27.9791 27.2818 28.7038 27.1633 29.3391C27.0448 29.9742 26.9155 30.5206 26.8167 30.7556L26.811 30.7533ZM27.4388 27.3863L27.4327 27.3858C27.4573 27.0957 27.4943 26.8579 27.5421 26.6771C27.5898 26.4966 27.6487 26.3717 27.7178 26.3087L27.7219 26.3133L27.7261 26.3179C27.6598 26.3782 27.6017 26.5 27.554 26.6802C27.5064 26.8601 27.4696 27.0972 27.445 27.3868L27.4388 27.3863ZM27.7219 26.3133L27.718 26.3086C27.756 26.2769 27.817 26.2496 27.9081 26.2258C27.9993 26.202 28.1212 26.1815 28.2813 26.1638C28.6017 26.1283 29.0758 26.1036 29.7652 26.0851L29.7653 26.0913L29.7655 26.0975C29.0762 26.116 28.6025 26.1406 28.2827 26.176C28.1228 26.1938 28.0016 26.2141 27.9112 26.2377C27.8207 26.2614 27.7618 26.2881 27.7259 26.318L27.7219 26.3133ZM29.7653 26.0913L29.7652 26.0851L31.6116 26.0358L31.6118 26.042L31.6119 26.0481L29.7655 26.0975L29.7653 26.0913ZM31.6118 26.042L31.6092 26.0363L32.8156 25.4937L32.8181 25.4993L32.8206 25.5049L31.6143 26.0476L31.6118 26.042ZM32.8181 25.4993L32.8156 25.4937C33.3448 25.2532 33.6829 25.0807 34.004 24.8545C34.3251 24.6282 34.6295 24.3479 35.0911 23.8916L35.0954 23.896L35.0997 23.9004C34.6381 24.3567 34.3331 24.6376 34.0111 24.8646C33.689 25.0915 33.3501 25.2644 32.8207 25.5049L32.8181 25.4993ZM35.0954 23.896L35.0911 23.8915C35.7432 23.2628 36.3707 22.4863 36.6904 21.9565L36.6957 21.9597L36.7009 21.9629C36.3806 22.4937 35.7524 23.2711 35.0997 23.9004L35.0954 23.896ZM36.6957 21.9597L36.6903 21.9566C36.8319 21.71 36.9611 21.4788 37.0549 21.3046C37.1018 21.2175 37.1399 21.1448 37.1662 21.0915C37.1793 21.0648 37.1895 21.0431 37.1964 21.027C37.1998 21.0189 37.2024 21.0123 37.2041 21.0072C37.2059 21.0018 37.2065 20.9989 37.2065 20.9977H37.2127H37.2188C37.2188 21.0011 37.2176 21.0058 37.2158 21.0111C37.214 21.0167 37.2112 21.0236 37.2077 21.0318C37.2007 21.0483 37.1904 21.0702 37.1772 21.097C37.1508 21.1504 37.1127 21.2233 37.0658 21.3105C36.9719 21.4847 36.8426 21.716 36.701 21.9627L36.6957 21.9597ZM37.2127 20.9977H37.2065C37.2065 20.9945 37.2073 20.9903 37.2085 20.9854C37.2098 20.9804 37.2117 20.9741 37.2141 20.9668C37.2189 20.9522 37.2259 20.9329 37.235 20.9097C37.2531 20.8631 37.2793 20.8002 37.3116 20.7254C37.3763 20.5758 37.4656 20.3784 37.5641 20.1687L37.5696 20.1713L37.5752 20.174C37.4768 20.3836 37.3876 20.5809 37.323 20.7303C37.2907 20.8051 37.2645 20.8678 37.2465 20.9142C37.2375 20.9373 37.2305 20.9563 37.2258 20.9707C37.2234 20.9778 37.2217 20.9838 37.2205 20.9884C37.2193 20.9932 37.2188 20.9962 37.2188 20.9977H37.2127ZM37.5696 20.1713L37.564 20.1687C37.896 19.4544 38.0682 18.7029 38.4375 16.2731L38.4436 16.2741L38.4497 16.275C38.0805 18.7045 37.908 19.4577 37.5752 20.1739L37.5696 20.1713ZM38.4436 16.2741L38.4375 16.273C38.5727 15.4603 38.4622 14.3636 38.1299 13.0936L38.1359 13.0921L38.1418 13.0905C38.4743 14.3612 38.5853 15.4598 38.4497 16.2751L38.4436 16.2741ZM38.1359 13.0921L38.1299 13.0936C38.0807 12.8962 38.0345 12.6988 38.0006 12.5384C37.9837 12.4582 37.9698 12.3871 37.9602 12.33C37.9505 12.273 37.9451 12.2293 37.9451 12.2041H37.9512H37.9574C37.9574 12.2282 37.9627 12.2709 37.9723 12.3279C37.9819 12.3849 37.9957 12.4557 38.0127 12.5358C38.0465 12.6961 38.0926 12.8933 38.1419 13.0906L38.1359 13.0921ZM37.9512 12.2041H37.9451C37.9451 12.165 37.9321 12.1059 37.9072 12.0294C37.8825 11.953 37.8461 11.86 37.7998 11.7533C37.7072 11.54 37.5749 11.2727 37.4165 10.9768C37.0996 10.3849 36.6781 9.67905 36.2597 9.06258L36.2648 9.05912L36.2699 9.05565C36.6886 9.67251 37.1103 10.3788 37.4274 10.9709C37.5859 11.267 37.7183 11.5347 37.8111 11.7484C37.8575 11.8552 37.894 11.9487 37.919 12.0256C37.9439 12.1023 37.9574 12.163 37.9574 12.2041H37.9512ZM36.2648 9.05912L36.2597 9.06261C35.4477 7.87914 34.3395 6.64754 32.8265 5.40091L32.8304 5.39615L32.8344 5.39139C34.3481 6.63868 35.4571 7.87112 36.2699 9.05563L36.2648 9.05912ZM24.386 1.33852L24.3842 1.3444C23.3939 1.03011 21.7572 0.77116 20.151 0.627798C18.5446 0.484428 16.9697 0.456753 16.1027 0.604609L16.1016 0.59853L16.1006 0.592451C16.9693 0.444309 18.5456 0.472134 20.1521 0.615513C21.7586 0.758898 23.3963 1.01794 24.3879 1.33265L24.386 1.33852ZM32.8304 5.39615L32.8265 5.40091C30.0039 3.07515 27.5112 2.32731 24.3842 1.34441L24.386 1.33852L24.3879 1.33264C27.5148 2.31552 30.0097 3.06393 32.8344 5.39139L32.8304 5.39615ZM2.61027 18.753L2.61469 18.7487C4.45034 20.6297 6.61138 21.5836 8.88083 22.3039C10.0156 22.664 11.1772 22.9657 12.339 23.2958C13.5006 23.6258 14.6622 23.9842 15.7963 24.4576L15.7939 24.4633L15.7915 24.469C14.6581 23.9958 13.4971 23.6376 12.3356 23.3076C11.1742 22.9777 10.0121 22.6759 8.8771 22.3156C6.60683 21.5951 4.44356 20.6404 2.60586 18.7573L2.61027 18.753ZM17.148 17.1004L17.1449 17.1058C17.1332 17.0992 17.1216 17.0927 17.11 17.0863L17.113 17.0809L17.116 17.0755C17.1276 17.0819 17.1392 17.0884 17.151 17.095L17.148 17.1004ZM21.4071 2.97884L21.4088 2.96663L21.4089 2.96664L21.4071 2.97884ZM31.0086 6.77747L31.0018 6.78773L31.0016 6.78761L31.0086 6.77747ZM33.6059 9.09612L33.5965 9.1041L33.5965 9.10407L33.6059 9.09612ZM35.6863 12.4138L35.6983 12.4111L35.6983 12.4112L35.6863 12.4138ZM36.0556 13.6224L36.0438 13.6263L36.0438 13.6262L36.0556 13.6224ZM36.2279 15.4477L36.2346 15.4581L36.2344 15.4582L36.2279 15.4477ZM34.9477 14.3501L34.9399 14.3596L34.9477 14.3501ZM21.5794 7.87513L21.5774 7.88729L21.5773 7.88728L21.5794 7.87513ZM17.825 7.4928L17.8243 7.50511L17.8243 7.50511L17.825 7.4928ZM14.686 7.18447L14.6884 7.17236L14.6887 7.17243L14.686 7.18447ZM13.0242 6.93781L13.0253 6.92552L13.0255 6.92554L13.0242 6.93781ZM12.1749 3.53384L12.1693 3.5228L12.1699 3.52255L12.1749 3.53384ZM14.1075 3.05284L14.1096 3.06499L14.1094 3.06502L14.1075 3.05284ZM15.7939 2.76918L15.796 2.78133L15.7956 2.78139L15.7939 2.76918ZM8.5189 5.55648L8.50731 5.56075L8.50714 5.56019L8.5189 5.55648ZM9.49136 7.91213L9.48239 7.9206L9.48229 7.92048L9.49136 7.91213ZM18.0712 9.71278L18.0722 9.70049L18.0722 9.70049L18.0712 9.71278ZM22.7488 10.2801L22.7458 10.2921L22.7454 10.292L22.7488 10.2801ZM24.226 10.5761L24.2241 10.5883L24.2241 10.5883L24.226 10.5761ZM28.3251 11.9081L28.3311 11.8973L28.3311 11.8973L28.3251 11.9081ZM29.913 13.8937L29.9008 13.8952V13.8951L29.913 13.8937ZM28.6082 16.607L28.617 16.6158L28.6082 16.607ZM27.0941 17.9514L27.1012 17.9615L27.101 17.9616L27.0941 17.9514ZM25.9247 18.7407L25.9178 18.7305L25.918 18.7304L25.9247 18.7407ZM18.7236 22.2063L18.7271 22.2181L18.7271 22.2182L18.7236 22.2063ZM18.182 21.639L18.1926 21.6453L18.1926 21.6453L18.182 21.639ZM18.7482 18.975L18.7363 18.9783L18.7363 18.9782L18.7482 18.975ZM17.148 17.1004L17.142 17.1112L17.1419 17.1111L17.148 17.1004ZM15.5354 16.1754L15.5289 16.1859L15.5287 16.1857L15.5354 16.1754ZM14.5506 15.7561L14.5476 15.768L14.5472 15.7679L14.5506 15.7561ZM11.6086 14.6461L11.6038 14.6574L11.6036 14.6573L11.6086 14.6461ZM9.73755 13.9801L9.73185 13.991L9.73167 13.9909L9.73755 13.9801ZM8.88819 13.5977L8.88479 13.6096L8.88451 13.6095L8.88819 13.5977ZM5.10913 11.4024L5.11807 11.3939L5.11809 11.394L5.10913 11.4024ZM4.09974 9.36745H4.0874L4.08741 9.36723L4.09974 9.36745ZM6.30316 6.34581L6.29526 6.33634L6.29529 6.33632L6.30316 6.34581ZM3.27499 12.6974L3.26946 12.7085L3.26877 12.7081L3.27499 12.6974ZM5.8354 14.5351L5.8299 14.5461L5.82987 14.5461L5.8354 14.5351ZM9.20824 16.0151L9.20249 16.026L9.20211 16.0258L9.20824 16.0151ZM12.3226 17.1744L12.3188 17.1861L12.3187 17.1861L12.3226 17.1744ZM13.3812 17.606L13.374 17.6161L13.3732 17.6154L13.3812 17.606ZM14.2306 17.9637L14.2344 17.952L14.2346 17.952L14.2306 17.9637ZM16.2493 19.3697L16.2386 19.3757L16.2385 19.3756L16.2493 19.3697ZM15.9539 21.1087L15.9636 21.1164L15.9635 21.1164L15.9539 21.1087ZM15.1784 21.7623L15.1818 21.7742L15.1815 21.7743L15.1784 21.7623ZM9.39288 20.455L9.39786 20.4437L9.39807 20.4438L9.39288 20.455ZM4.51827 17.8404L4.50912 17.8486L4.50903 17.8485L4.51827 17.8404ZM3.17652 15.5957L3.18832 15.5921L3.18832 15.5922L3.17652 15.5957ZM2.81954 14.6214L2.80828 14.6265L2.80819 14.6262L2.81954 14.6214ZM34.5045 17.9144L34.516 17.9098L34.5161 17.91L34.5045 17.9144ZM34.8369 19.863L34.8246 19.8622L34.8246 19.8621L34.8369 19.863ZM33.6306 22.6257L33.6222 22.6166L33.6223 22.6165L33.6306 22.6257ZM26.5894 24.3646L26.5954 24.3754L26.5953 24.3755L26.5894 24.3646ZM25.1492 27.8796L25.1615 27.8805L25.1615 27.8805L25.1492 27.8796ZM24.7184 29.7666L24.7084 29.7593L24.7086 29.7591L24.7184 29.7666ZM20.6685 26.301L20.6788 26.2941L20.6788 26.2941L20.6685 26.301ZM20.2623 23.933L20.2654 23.9449L20.2652 23.945L20.2623 23.933ZM30.6639 17.6677L30.6731 17.6759L30.6731 17.676L30.6639 17.6677ZM32.0672 15.2874L32.0552 15.2845L32.0553 15.2842L32.0672 15.2874ZM17.113 17.0809L17.107 17.0917L17.113 17.0809ZM21.4071 2.97884L21.4089 2.96664C24.9436 3.48491 28.0228 4.69428 31.0156 6.76734L31.0086 6.77747L31.0016 6.78761C28.0119 4.71671 24.9363 3.50876 21.4053 2.99104L21.4071 2.97884ZM31.0086 6.77747L31.0155 6.76722C31.3301 6.9774 31.8631 7.41883 32.3755 7.87673C32.8879 8.33462 33.3809 8.80995 33.6154 9.08817L33.6059 9.09612L33.5965 9.10407C33.3632 8.8273 32.8714 8.35297 32.3591 7.89512C31.8467 7.43727 31.3149 6.99687 31.0018 6.78773L31.0086 6.77747ZM33.6059 9.09612L33.6153 9.08813C34.0036 9.54509 34.4964 10.2486 34.9058 10.901C35.1106 11.2272 35.2946 11.5408 35.4344 11.8046C35.574 12.0679 35.6702 12.2828 35.6983 12.4111L35.6863 12.4138L35.6742 12.4164C35.6469 12.2918 35.5523 12.0797 35.4126 11.8162C35.2732 11.5531 35.0895 11.24 34.8849 10.9141C34.4758 10.2623 33.9838 9.5598 33.5965 9.1041L33.6059 9.09612ZM35.6863 12.4138L35.6983 12.4112C35.7351 12.583 35.9071 13.1249 36.0673 13.6186L36.0556 13.6224L36.0438 13.6262C35.8839 13.1333 35.7113 12.5898 35.6742 12.4163L35.6863 12.4138ZM36.0556 13.6224L36.0673 13.6185C36.2213 14.0816 36.317 14.5049 36.3479 14.8299C36.3633 14.9923 36.3626 15.1307 36.3447 15.2374C36.3269 15.3435 36.2915 15.4212 36.2346 15.4581L36.2279 15.4477L36.2212 15.4374C36.269 15.4064 36.3028 15.3377 36.3204 15.2333C36.3378 15.1296 36.3387 14.9936 36.3233 14.8322C36.2927 14.5097 36.1975 14.0882 36.0438 13.6263L36.0556 13.6224ZM36.2279 15.4477L36.2344 15.4582C36.2094 15.4736 36.1777 15.4706 36.1435 15.4574C36.1089 15.4441 36.0689 15.4193 36.0248 15.3861C35.9364 15.3197 35.8288 15.2178 35.7107 15.1005C35.474 14.8651 35.1947 14.5669 34.9399 14.3596L34.9477 14.3501L34.9555 14.3405C35.2116 14.5488 35.4924 14.8487 35.7281 15.083C35.8462 15.2004 35.9528 15.3012 36.0396 15.3664C36.0831 15.3991 36.1209 15.4223 36.1523 15.4344C36.1841 15.4467 36.2064 15.4465 36.2214 15.4372L36.2279 15.4477ZM21.5794 7.87513L21.5773 7.88728C20.8025 7.75173 19.1166 7.5791 17.8243 7.50511L17.825 7.4928L17.8257 7.48049C19.1184 7.5545 20.8054 7.7272 21.5815 7.86298L21.5794 7.87513ZM17.825 7.4928L17.8243 7.50511C16.5443 7.43112 15.1276 7.29543 14.6833 7.19651L14.686 7.18447L14.6887 7.17243C15.1307 7.27084 16.5453 7.40648 17.8257 7.48049L17.825 7.4928ZM14.686 7.18447L14.6837 7.19658C14.2409 7.11031 13.5027 6.99937 13.023 6.95007L13.0242 6.93781L13.0255 6.92554C13.5059 6.97491 14.2449 7.08596 14.6884 7.17236L14.686 7.18447ZM13.0242 6.93781L13.0231 6.95009C12.3445 6.88828 11.773 6.69352 11.3707 6.40829C10.9683 6.12298 10.7346 5.74652 10.7346 5.32215H10.7469H10.7593C10.7593 5.73645 10.9872 6.10614 11.3849 6.38817C11.7828 6.67026 12.3499 6.864 13.0253 6.92552L13.0242 6.93781ZM10.7469 5.32215H10.7346C10.7346 5.19001 10.7816 5.03313 10.862 4.86738C10.9425 4.70143 11.0569 4.52568 11.1928 4.35555C11.4643 4.01543 11.8226 3.69649 12.1693 3.52281L12.1749 3.53384L12.1804 3.54486C11.8377 3.71651 11.4821 4.03273 11.212 4.37094C11.0771 4.53997 10.9637 4.71418 10.8842 4.87814C10.8046 5.0423 10.7593 5.1953 10.7593 5.32215H10.7469ZM12.1749 3.53384L12.1699 3.52255C12.4791 3.38623 13.3421 3.16404 14.1055 3.04067L14.1075 3.05284L14.1094 3.06502C13.3465 3.18831 12.4861 3.41011 12.1798 3.54512L12.1749 3.53384ZM14.1075 3.05284L14.1053 3.0407C14.8685 2.90503 15.6196 2.78167 15.7921 2.75697L15.7939 2.76918L15.7956 2.78139C15.6235 2.80602 14.8728 2.92932 14.1096 3.06498L14.1075 3.05284ZM15.7939 2.76918L15.7918 2.75702C16.2917 2.67045 17.2131 2.6551 18.2501 2.69519C19.2876 2.73528 20.442 2.8309 21.4088 2.96663L21.4071 2.97884L21.4054 2.99105C20.4395 2.85546 19.2859 2.7599 18.2492 2.71984C17.2121 2.67975 16.2931 2.69524 15.796 2.78133L15.7939 2.76918ZM9.49136 7.91213L9.50033 7.90366C9.92848 8.35715 10.6362 8.68951 11.9558 8.96688C13.2752 9.24421 15.204 9.46616 18.0722 9.70049L18.0712 9.71278L18.0702 9.72507C15.202 9.49074 13.2718 9.2687 11.9507 8.99102C10.6299 8.71339 9.91591 8.37976 9.48239 7.9206L9.49136 7.91213ZM18.0712 9.71278L18.0722 9.70049C20.7429 9.92244 22.1107 10.0828 22.7523 10.2683L22.7488 10.2801L22.7454 10.292C22.1068 10.1074 20.7419 9.94711 18.0702 9.72507L18.0712 9.71278ZM22.7488 10.2801L22.7518 10.2681C23.0961 10.3544 23.7605 10.49 24.2279 10.5639L24.226 10.5761L24.2241 10.5883C23.756 10.5142 23.0909 10.3785 22.7458 10.2921L22.7488 10.2801ZM24.226 10.5761L24.2278 10.5639C24.7582 10.6442 25.5837 10.8665 26.3763 11.124C27.1688 11.3815 27.9299 11.6747 28.3311 11.8973L28.3251 11.9081L28.3191 11.9189C27.9202 11.6975 27.161 11.4049 26.3687 11.1475C25.5764 10.8901 24.7524 10.6683 24.2241 10.5883L24.226 10.5761ZM28.3251 11.9081L28.3311 11.8973C29.2563 12.4164 29.8385 13.1346 29.9253 13.8923L29.913 13.8937L29.9008 13.8951C29.8152 13.1482 29.2404 12.4358 28.3191 11.9188L28.3251 11.9081ZM29.913 13.8937L29.9253 13.8923C29.9809 14.3752 29.9346 14.7753 29.7334 15.1956C29.5324 15.6153 29.1773 16.0544 28.617 16.6158L28.6082 16.607L28.5995 16.5983C29.1593 16.0374 29.512 15.6008 29.7111 15.1849C29.91 14.7696 29.956 14.3743 29.9008 13.8952L29.913 13.8937ZM28.6082 16.607L28.617 16.6158C28.0998 17.1339 27.4222 17.7388 27.1012 17.9615L27.0941 17.9514L27.0871 17.9412C27.4062 17.7199 28.0826 17.1162 28.5995 16.5983L28.6082 16.607ZM27.0941 17.9514L27.101 17.9616C26.769 18.1834 26.2515 18.5414 25.9315 18.751L25.9247 18.7407L25.918 18.7304C26.2381 18.5207 26.7545 18.1634 27.0873 17.9411L27.0941 17.9514ZM25.9247 18.7407L25.9317 18.7509C25.1369 19.2941 23.776 20.0282 22.3941 20.6928C21.0122 21.3573 19.6082 21.9527 18.7271 22.2181L18.7236 22.2063L18.72 22.1945C19.5992 21.9296 21.0018 21.3349 22.3834 20.6705C23.765 20.0061 25.1246 19.2726 25.9178 18.7305L25.9247 18.7407ZM18.7236 22.2063L18.7271 22.2182C18.5603 22.2677 18.422 22.2911 18.3133 22.2896C18.2049 22.288 18.1239 22.2614 18.0745 22.2086C18.0247 22.1554 18.0094 22.0785 18.0259 21.9822C18.0425 21.8861 18.091 21.769 18.1713 21.6327L18.182 21.639L18.1926 21.6453C18.1129 21.7803 18.066 21.8945 18.0502 21.9864C18.0345 22.0783 18.0499 22.1462 18.0925 22.1917C18.1354 22.2376 18.2083 22.2634 18.3137 22.2649C18.4189 22.2664 18.5545 22.2437 18.7201 22.1945L18.7236 22.2063ZM18.182 21.639L18.1713 21.6328C18.4972 21.0783 18.6965 20.6294 18.7854 20.2119C18.8742 19.7948 18.8528 19.4083 18.7363 18.9783L18.7482 18.975L18.7601 18.9718C18.8775 19.4051 18.8992 19.7956 18.8095 20.2171C18.7199 20.6383 18.5191 21.0898 18.1926 21.6453L18.182 21.639ZM18.7482 18.975L18.7363 18.9782C18.657 18.6786 18.4275 18.3041 18.1326 17.9578C17.8378 17.6117 17.4788 17.2953 17.142 17.1112L17.148 17.1004L17.1539 17.0896C17.4941 17.2755 17.8553 17.5942 18.1513 17.9418C18.4473 18.2893 18.6794 18.6671 18.7601 18.9719L18.7482 18.975ZM15.5354 16.1754L15.5287 16.1857C15.2838 16.0262 14.8419 15.8417 14.5476 15.768L14.5506 15.7561L14.5536 15.7441C14.8502 15.8184 15.2946 16.0039 15.5421 16.1651L15.5354 16.1754ZM14.5506 15.7561L14.5472 15.7679C14.2509 15.6813 13.7578 15.4837 13.4494 15.323L13.4551 15.3121L13.4608 15.3011C13.7678 15.4611 14.2594 15.6581 14.5541 15.7442L14.5506 15.7561ZM13.4551 15.3121L13.4494 15.323C13.2959 15.243 13.1332 15.1692 12.9936 15.1154C12.9239 15.0886 12.86 15.0667 12.8061 15.0516C12.7519 15.0365 12.7086 15.0284 12.6796 15.0284V15.0161V15.0037C12.7121 15.0037 12.7581 15.0126 12.8127 15.0279C12.8676 15.0433 12.9323 15.0654 13.0025 15.0924C13.143 15.1466 13.3065 15.2208 13.4608 15.3011L13.4551 15.3121ZM12.6796 15.0161V15.0284C12.6469 15.0284 12.5923 15.0171 12.5228 14.9979C12.4528 14.9785 12.3663 14.9507 12.2693 14.9167C12.0751 14.8488 11.8379 14.7562 11.6038 14.6574L11.6086 14.6461L11.6134 14.6347C11.8471 14.7333 12.0838 14.8257 12.2774 14.8934C12.3742 14.9273 12.4601 14.9549 12.5294 14.9741C12.5991 14.9934 12.6507 15.0037 12.6796 15.0037V15.0161ZM11.6086 14.6461L11.6036 14.6573C11.37 14.5526 11.1334 14.4603 10.9384 14.3941C10.8409 14.361 10.7539 14.3345 10.6829 14.3163C10.6116 14.298 10.5575 14.2884 10.5254 14.2884V14.2761V14.2637C10.5609 14.2637 10.6176 14.2741 10.689 14.2925C10.7608 14.3109 10.8484 14.3376 10.9463 14.3708C11.1421 14.4372 11.3794 14.5298 11.6137 14.6348L11.6086 14.6461ZM10.5254 14.2761V14.2884C10.4929 14.2884 10.4461 14.2795 10.3904 14.2643C10.3343 14.2489 10.2681 14.2268 10.1964 14.1997C10.0528 14.1456 9.88615 14.0714 9.73185 13.991L9.73755 13.9801L9.74325 13.9691C9.8967 14.0491 10.0624 14.1229 10.2051 14.1767C10.2764 14.2035 10.3418 14.2254 10.3969 14.2405C10.4523 14.2556 10.4963 14.2637 10.5254 14.2637V14.2761ZM9.73755 13.9801L9.73167 13.9909C9.43643 13.8307 9.05579 13.6586 8.88479 13.6096L8.88819 13.5977L8.89158 13.5859C9.06525 13.6356 9.44781 13.8088 9.74343 13.9692L9.73755 13.9801ZM8.88819 13.5977L8.88451 13.6095C8.31086 13.4303 7.5283 13.0536 6.80782 12.6356C6.08755 12.2177 5.42767 11.7576 5.10016 11.4109L5.10913 11.4024L5.11809 11.394C5.443 11.7379 6.10025 12.1966 6.8202 12.6143C7.53996 13.0319 8.32072 13.4075 8.89186 13.586L8.88819 13.5977ZM5.10913 11.4024L5.10018 11.4109C4.85899 11.1569 4.606 10.761 4.41335 10.3719C4.31699 10.1773 4.23558 9.98402 4.17824 9.81069C4.12097 9.6376 4.08741 9.4835 4.08741 9.36745H4.09974H4.11207C4.11207 9.47956 4.14467 9.63071 4.20165 9.80295C4.25856 9.97495 4.33949 10.1671 4.43546 10.361C4.62749 10.7488 4.87919 11.1423 5.11807 11.3939L5.10913 11.4024ZM4.09974 9.36745L4.08741 9.36723C4.09053 9.19517 4.15209 8.98523 4.26148 8.75134C4.37095 8.51727 4.52874 8.25836 4.72525 7.98812C5.11827 7.44765 5.66677 6.86109 6.29526 6.33634L6.30316 6.34581L6.31107 6.35528C5.68398 6.87885 5.13691 7.46395 4.7452 8.00263C4.54934 8.27197 4.39246 8.52952 4.28382 8.76179C4.1751 8.99426 4.1151 9.20056 4.11207 9.36767L4.09974 9.36745ZM6.30316 6.34581L6.29529 6.33632C6.7077 5.99404 7.03879 5.72942 7.30688 5.53608C7.57478 5.34286 7.7806 5.2202 7.94236 5.16254C8.10441 5.10477 8.22464 5.11149 8.3185 5.18081C8.41116 5.24923 8.47519 5.37677 8.53066 5.55278L8.5189 5.55648L8.50714 5.56019C8.45182 5.3847 8.38968 5.26403 8.30385 5.20065C8.21921 5.13815 8.10864 5.12945 7.95064 5.18577C7.79235 5.2422 7.58888 5.36311 7.32131 5.55608C7.05393 5.74892 6.72337 6.01309 6.31104 6.3553L6.30316 6.34581ZM3.27499 12.6974L3.28052 12.6864C3.35573 12.7241 3.50138 12.8298 3.67506 12.9684C3.84914 13.1073 4.05245 13.2801 4.24342 13.4529L4.23514 13.4621L4.22687 13.4712C4.03625 13.2987 3.83333 13.1262 3.65967 12.9876C3.4856 12.8487 3.34197 12.7448 3.26947 12.7084L3.27499 12.6974ZM4.23514 13.4621L4.24342 13.4529C4.62406 13.7974 5.34936 14.2778 5.84092 14.524L5.8354 14.5351L5.82987 14.5461C5.33666 14.299 4.60943 13.8174 4.22687 13.4712L4.23514 13.4621ZM5.8354 14.5351L5.84089 14.524C6.8072 15.005 7.43788 15.3102 7.84847 15.4951C8.05378 15.5875 8.20385 15.6498 8.31321 15.6889C8.42301 15.7282 8.49047 15.7437 8.53121 15.7437V15.7561V15.7684C8.48578 15.7684 8.41475 15.7515 8.3049 15.7122C8.19462 15.6727 8.04386 15.6101 7.83834 15.5176C7.42727 15.3324 6.79621 15.0271 5.8299 14.5461L5.8354 14.5351ZM8.53121 15.7561V15.7437C8.56052 15.7437 8.60177 15.751 8.65051 15.7638C8.69949 15.7766 8.75683 15.7953 8.81867 15.8185C8.94233 15.865 9.0845 15.93 9.21437 16.0044L9.20824 16.0151L9.20211 16.0258C9.07348 15.9521 8.93252 15.8876 8.80999 15.8416C8.74873 15.8186 8.69221 15.8002 8.64425 15.7876C8.59605 15.775 8.55728 15.7684 8.53121 15.7684V15.7561ZM9.20824 16.0151L9.21398 16.0041C9.70528 16.2626 10.6767 16.6199 12.3264 17.1627L12.3226 17.1744L12.3187 17.1861C10.6695 16.6435 9.69597 16.2855 9.2025 16.026L9.20824 16.0151ZM12.3226 17.1744L12.3263 17.1626C12.579 17.2429 12.8224 17.3324 13.0135 17.4112C13.1091 17.4506 13.1917 17.4873 13.2559 17.5189C13.3196 17.5502 13.3664 17.577 13.3892 17.5967L13.3812 17.606L13.3732 17.6154C13.353 17.5981 13.3089 17.5725 13.245 17.541C13.1814 17.5097 13.0994 17.4732 13.0041 17.434C12.8137 17.3555 12.5709 17.2662 12.3188 17.1861L12.3226 17.1744ZM13.3812 17.606L13.3884 17.596C13.4302 17.6259 13.5459 17.6841 13.7 17.7504C13.8535 17.8166 14.044 17.8904 14.2344 17.952L14.2306 17.9637L14.2268 17.9754C14.0356 17.9136 13.8444 17.8395 13.6902 17.7731C13.5365 17.7069 13.4184 17.6478 13.374 17.6161L13.3812 17.606ZM14.2306 17.9637L14.2346 17.952C14.6114 18.082 15.0587 18.3262 15.4409 18.5918C15.632 18.7247 15.8072 18.863 15.9492 18.9953C16.0912 19.1274 16.2008 19.2542 16.2602 19.3638L16.2493 19.3697L16.2385 19.3756C16.181 19.2694 16.0736 19.1448 15.9324 19.0133C15.7914 18.882 15.6172 18.7444 15.4268 18.6121C15.0458 18.3473 14.6006 18.1044 14.2265 17.9754L14.2306 17.9637ZM16.2493 19.3697L16.2601 19.3637C16.5588 19.8998 16.458 20.4972 15.9636 21.1164L15.9539 21.1087L15.9443 21.101C16.4347 20.4868 16.5308 19.9003 16.2386 19.3757L16.2493 19.3697ZM15.9539 21.1087L15.9635 21.1164C15.8337 21.2774 15.6824 21.429 15.5418 21.5467C15.4016 21.664 15.2707 21.7488 15.1818 21.7742L15.1784 21.7623L15.175 21.7505C15.2585 21.7266 15.386 21.6449 15.5259 21.5278C15.6654 21.4111 15.8156 21.2606 15.9443 21.1009L15.9539 21.1087ZM15.1784 21.7623L15.1815 21.7743C15.107 21.7933 14.9788 21.7951 14.8108 21.7832C14.6423 21.7713 14.4322 21.7456 14.1929 21.709C13.7144 21.6357 13.1186 21.5185 12.5045 21.3797C11.2767 21.1022 9.97374 20.7382 9.38769 20.4662L9.39288 20.455L9.39807 20.4438C9.98144 20.7145 11.282 21.0781 12.5099 21.3556C13.1237 21.4943 13.7189 21.6115 14.1967 21.6846C14.4356 21.7212 14.6449 21.7468 14.8125 21.7586C14.9807 21.7705 15.1052 21.7683 15.1754 21.7504L15.1784 21.7623ZM9.39288 20.455L9.38791 20.4663C9.23434 20.3986 9.06853 20.334 8.92432 20.2864C8.77948 20.2385 8.65819 20.2083 8.59276 20.2083V20.196V20.1837C8.66273 20.1837 8.78763 20.2152 8.93206 20.2629C9.07713 20.3109 9.24368 20.3758 9.39786 20.4437L9.39288 20.455ZM8.59276 20.196V20.2083C8.51969 20.2083 8.41044 20.1811 8.27523 20.1332C8.13959 20.0852 7.97647 20.016 7.79509 19.931C7.4323 19.7611 6.99575 19.5277 6.55855 19.274C6.12134 19.0203 5.68331 18.7461 5.31756 18.4944C4.95212 18.2429 4.6579 18.0132 4.50912 17.8486L4.51827 17.8404L4.52742 17.8321C4.67406 17.9943 4.96609 18.2226 5.33154 18.474C5.69667 18.7253 6.13416 18.9992 6.57093 19.2526C7.00772 19.5061 7.44361 19.7391 7.80555 19.9087C7.98654 19.9935 8.14886 20.0623 8.28345 20.11C8.41848 20.1578 8.52426 20.1837 8.59276 20.1837V20.196ZM4.51827 17.8404L4.50903 17.8485C4.26827 17.5764 3.97239 17.1471 3.71679 16.7198C3.46129 16.2926 3.24519 15.866 3.16471 15.5993L3.17652 15.5957L3.18832 15.5922C3.26787 15.8558 3.4826 16.2802 3.73796 16.7071C3.9932 17.1338 4.28818 17.5617 4.5275 17.8322L4.51827 17.8404ZM3.17652 15.5957L3.16472 15.5993C3.07865 15.316 2.9188 14.8725 2.80829 14.6265L2.81954 14.6214L2.83079 14.6163C2.94184 14.8636 3.10204 15.3081 3.18832 15.5921L3.17652 15.5957ZM2.81954 14.6214L2.80819 14.6262C2.66563 14.2909 2.60715 13.7709 2.62257 13.3352C2.63028 13.1173 2.65651 12.9196 2.70042 12.7759C2.72235 12.7041 2.74894 12.6451 2.78044 12.6037C2.81197 12.5622 2.84963 12.5371 2.89339 12.5371V12.5494V12.5618C2.86022 12.5618 2.82902 12.5806 2.80007 12.6186C2.77108 12.6567 2.74554 12.7127 2.72401 12.7831C2.68098 12.9239 2.65489 13.1193 2.64722 13.3361C2.63186 13.77 2.69032 14.2859 2.83089 14.6166L2.81954 14.6214ZM2.89339 12.5494V12.5371C2.9104 12.5371 2.93395 12.5413 2.96135 12.5485C2.98898 12.5557 3.02133 12.5663 3.05625 12.5795C3.12608 12.6059 3.20672 12.6432 3.28122 12.6868L3.27499 12.6974L3.26877 12.7081C3.19556 12.6653 3.11617 12.6286 3.04752 12.6026C3.01319 12.5896 2.98168 12.5793 2.95508 12.5723C2.92824 12.5653 2.90716 12.5618 2.89339 12.5618V12.5494ZM34.5045 17.9144L34.5161 17.91C34.6945 18.3847 34.7934 18.6725 34.8398 18.9421C34.8863 19.2119 34.88 19.463 34.8492 19.864L34.8369 19.863L34.8246 19.8621C34.8554 19.4614 34.8614 19.2129 34.8155 18.9463C34.7696 18.6794 34.6715 18.3937 34.493 17.9187L34.5045 17.9144ZM34.8369 19.863L34.8492 19.8638C34.7752 20.9886 34.3311 22.0156 33.6388 22.6349L33.6306 22.6257L33.6223 22.6165C34.3087 22.0024 34.7509 20.9821 34.8246 19.8622L34.8369 19.863ZM26.5894 24.3646L26.5953 24.3755C26.0862 24.652 25.7686 24.9431 25.5576 25.4562C25.3461 25.9706 25.2415 26.7087 25.1615 27.8805L25.1492 27.8796L25.1369 27.8788C25.2169 26.7073 25.3216 25.9654 25.5348 25.4468C25.7485 24.927 26.071 24.6322 26.5836 24.3538L26.5894 24.3646ZM25.1492 27.8796L25.1615 27.8805C25.1123 28.5277 25.0784 28.9049 25.0197 29.168C24.9608 29.4322 24.8767 29.5819 24.7281 29.7741L24.7184 29.7666L24.7086 29.7591C24.8555 29.569 24.9376 29.4226 24.9956 29.1627C25.0539 28.9016 25.0877 28.5265 25.1369 27.8787L25.1492 27.8796ZM24.7184 29.7666L24.7283 29.7739C24.6417 29.8917 24.5457 29.9972 24.4604 30.0733C24.4177 30.1114 24.3775 30.1424 24.3422 30.1639C24.3075 30.1851 24.2758 30.1983 24.2506 30.1983V30.1859V30.1736C24.2686 30.1736 24.2953 30.1636 24.3294 30.1428C24.363 30.1223 24.402 30.0924 24.444 30.0549C24.5279 29.98 24.6227 29.8758 24.7084 29.7593L24.7184 29.7666ZM24.2506 30.1859V30.1983C24.1742 30.1983 24.0847 30.1726 23.9843 30.1242C23.8837 30.0757 23.7714 30.0041 23.6488 29.9113C23.4038 29.7257 23.117 29.4546 22.8013 29.112C22.1699 28.4269 21.4217 27.4551 20.6582 26.3078L20.6685 26.301L20.6788 26.2941C21.4417 27.4408 22.1892 28.4114 22.8195 29.0953C23.1346 29.4373 23.4203 29.7073 23.6637 29.8917C23.7855 29.9838 23.8964 30.0545 23.995 30.102C24.0937 30.1495 24.1793 30.1736 24.2506 30.1736V30.1859ZM20.6685 26.301L20.6583 26.3078C20.3382 25.8299 20.0957 25.4565 19.9262 25.1619C19.7569 24.8675 19.6597 24.6504 19.6316 24.4854C19.6175 24.4027 19.6206 24.3324 19.6413 24.2718C19.662 24.211 19.6999 24.1609 19.7538 24.1181C19.8608 24.0332 20.0318 23.9765 20.2594 23.921L20.2623 23.933L20.2652 23.945C20.0373 24.0005 19.8714 24.0563 19.7691 24.1375C19.7183 24.1778 19.6836 24.2241 19.6646 24.2797C19.6457 24.3354 19.6423 24.4014 19.6559 24.4813C19.6832 24.6416 19.7783 24.8554 19.9475 25.1496C20.1166 25.4434 20.3587 25.8162 20.6788 26.2941L20.6685 26.301ZM30.6639 17.6677L30.6547 17.6595C30.9187 17.3643 31.2352 16.9087 31.5027 16.4574C31.7704 16.0058 31.988 15.56 32.0553 15.2845L32.0672 15.2874L32.0792 15.2903C32.011 15.5697 31.7917 16.0182 31.5239 16.47C31.2559 16.922 30.9385 17.3791 30.6731 17.6759L30.6639 17.6677ZM34.9477 14.3501L34.9399 14.3596C30.4407 10.7011 25.9071 8.6188 21.5774 7.88729L21.5794 7.87513L21.5815 7.86297C25.9161 8.5953 30.4535 10.6797 34.9555 14.3405L34.9477 14.3501ZM20.2623 23.933L20.2592 23.921C23.9024 22.9747 28.1024 20.4879 30.6548 17.6594L30.6639 17.6677L30.6731 17.676C28.1174 20.5081 23.9131 22.9974 20.2654 23.9449L20.2623 23.933ZM32.0672 15.2874L32.0553 15.2842C32.0921 15.1469 32.1569 15.0739 32.2459 15.0594C32.333 15.0452 32.4379 15.0883 32.5526 15.169C32.7826 15.3311 33.0628 15.653 33.3383 16.0212C33.6142 16.3898 33.8864 16.806 34.1007 17.1578C34.3148 17.5093 34.4716 17.7975 34.516 17.9098L34.5045 17.9144L34.4931 17.9189C34.4495 17.8089 34.2938 17.5224 34.0796 17.1706C33.8657 16.8192 33.5939 16.4037 33.3186 16.036C33.0431 15.6678 32.7649 15.3488 32.5384 15.1892C32.4247 15.1091 32.3267 15.0712 32.2499 15.0837C32.1749 15.096 32.1148 15.1575 32.0791 15.2906L32.0672 15.2874ZM33.6306 22.6257L33.6389 22.6348C32.5546 23.6267 31.3522 23.7512 30.1426 23.7837C28.932 23.8162 27.7159 23.7568 26.5954 24.3754L26.5894 24.3646L26.5835 24.3538C27.7106 23.7316 28.9342 23.7915 30.1419 23.7591C31.3505 23.7266 32.5449 23.6021 33.6222 22.6166L33.6306 22.6257ZM8.5189 5.55648L8.53047 5.55223C8.60936 5.76677 8.66489 5.97293 8.71495 6.17335C8.76505 6.37395 8.80959 6.56838 8.86666 6.76048C8.98066 7.14413 9.14435 7.51728 9.50043 7.90377L9.49136 7.91213L9.48229 7.92048C9.12297 7.53047 8.95775 7.15363 8.84302 6.7675C8.78574 6.57471 8.74096 6.3793 8.69101 6.17933C8.64102 5.97917 8.58575 5.77403 8.50732 5.56074L8.5189 5.55648ZM17.148 17.1004L17.1419 17.1111L17.107 17.0917L17.113 17.0809L17.119 17.0701L17.154 17.0896L17.148 17.1004ZM17.113 17.0809L17.107 17.0917C16.1642 16.5655 15.9427 16.4419 15.5289 16.1859L15.5354 16.1754L15.5419 16.1649C15.9551 16.4206 16.1761 16.5439 17.119 17.0701L17.113 17.0809Z" fill="#222222" mask="url(#path-1-inside-1_11336_1245)"/>
<path d="M16.1016 0.59853C15.7693 0.647863 14.723 0.783529 13.7997 0.894527C12.7165 1.01786 11.8179 1.19052 11.3009 1.38786C10.8577 1.56052 10.4146 1.69619 10.3038 1.69619C9.84834 1.69619 7.26332 2.92951 6.38933 3.57084C6.11852 3.75583 5.84771 3.91617 5.78616 3.91617C5.61382 3.91617 4.03819 5.30982 3.32423 6.09915C2.68413 6.80214 2.56103 6.98714 1.63781 8.60279C0.800756 10.0704 0.296061 12.6851 0.579183 14.0541C1.1085 16.5577 1.63781 17.7664 2.61027 18.753C6.28363 22.5171 11.2589 22.5701 15.7939 24.4633C16.7171 24.8456 17.6896 25.6226 18.0219 26.2393C18.1573 26.4736 18.5759 27.0903 18.9698 27.6083C19.3514 28.1139 19.8438 28.7676 20.053 29.0513C20.2746 29.3349 21.0009 30.0873 21.6779 30.7286C22.6996 31.6782 23.0689 31.9496 23.7828 32.2209C24.6445 32.5662 24.6568 32.5662 25.1985 32.3566C25.8016 32.1222 26.5525 31.3699 26.811 30.7533C27.008 30.2846 27.328 28.5703 27.4388 27.3863C27.488 26.8066 27.5865 26.4366 27.7219 26.3133C27.8696 26.19 28.3867 26.1283 29.7653 26.0913L31.6118 26.042L32.8181 25.4993C33.8767 25.0183 34.1722 24.8086 35.0954 23.896C35.7478 23.267 36.3756 22.49 36.6957 21.9597C36.9788 21.4663 37.2127 21.0347 37.2127 20.9977C37.2127 20.9607 37.3727 20.5907 37.5696 20.1713C37.902 19.456 38.0743 18.7037 38.4436 16.2741C38.579 15.4601 38.4682 14.3624 38.1359 13.0921C38.0374 12.6974 37.9512 12.3028 37.9512 12.2041C37.9512 11.8834 37.1019 10.2924 36.2648 9.05912C35.4524 7.87513 34.3438 6.64311 32.8304 5.39615C30.0068 3.06954 27.513 2.32141 24.386 1.33852C22.4042 0.70953 17.8373 0.302532 16.1016 0.59853ZM21.4071 2.97884C24.94 3.49684 28.0174 4.70549 31.0086 6.77747C31.6364 7.1968 33.1382 8.54112 33.6059 9.09612C34.3814 10.0088 35.5755 11.9081 35.6863 12.4138C35.7232 12.5864 35.8955 13.1291 36.0556 13.6224C36.3633 14.5474 36.4372 15.3121 36.2279 15.4477C36.0679 15.5464 35.4586 14.7656 34.9477 14.3501C30.4471 10.6904 25.9116 8.60705 21.5794 7.87513C20.8039 7.73946 19.1175 7.5668 17.825 7.4928C16.5448 7.4188 15.1292 7.28313 14.686 7.18447C14.2429 7.09814 13.5043 6.98714 13.0242 6.93781C11.6702 6.81447 10.7469 6.16081 10.7469 5.32215C10.7469 4.80416 11.4855 3.87917 12.1749 3.53384C12.4826 3.39817 13.3443 3.17617 14.1075 3.05284C14.8707 2.91718 15.6216 2.79384 15.7939 2.76918C16.791 2.59651 19.4745 2.70751 21.4071 2.97884ZM8.5189 5.55648C8.83354 6.41214 8.77596 7.13562 9.49136 7.91213C10.353 8.82479 12.3349 9.24412 18.0712 9.71278C20.7424 9.93478 22.1087 10.0951 22.7488 10.2801C23.0935 10.3664 23.7582 10.5021 24.226 10.5761C25.2846 10.7364 27.525 11.4641 28.3251 11.9081C29.2483 12.4261 29.8269 13.1414 29.913 13.8937C30.0238 14.8557 29.7284 15.4847 28.6082 16.607C28.0912 17.125 27.4142 17.7294 27.0941 17.9514C26.7618 18.1734 26.2448 18.531 25.9247 18.7407C24.3368 19.826 20.4839 21.676 18.7236 22.2063C18.0589 22.4037 17.8619 22.1817 18.182 21.639C18.8344 20.529 18.9821 19.8384 18.7482 18.975C18.5882 18.3707 17.825 17.4704 17.148 17.1004C16.1755 16.5577 15.9539 16.4344 15.5354 16.1754C15.2892 16.0151 14.8461 15.8301 14.5506 15.7561C14.2552 15.6697 13.7628 15.4724 13.4551 15.3121C13.1473 15.1517 12.8027 15.0161 12.6796 15.0161C12.5565 15.0161 12.0764 14.8434 11.6086 14.6461C11.1409 14.4364 10.6608 14.2761 10.5254 14.2761C10.4023 14.2761 10.0453 14.1404 9.73755 13.9801C9.44212 13.8197 9.06052 13.6471 8.88819 13.5977C7.74339 13.2401 5.76154 12.0931 5.10913 11.4024C4.62905 10.8968 4.09974 9.82378 4.09974 9.36745C4.11205 8.68912 5.04758 7.39413 6.30316 6.34581C7.95265 4.97682 8.29732 4.85349 8.5189 5.55648ZM3.27499 12.6974C3.42271 12.7714 3.85355 13.1167 4.23514 13.4621C4.61674 13.8074 5.34301 14.2884 5.8354 14.5351C7.76801 15.4971 8.35887 15.7561 8.53121 15.7561C8.64199 15.7561 8.94974 15.8671 9.20824 16.0151C9.70062 16.2741 10.6731 16.6317 12.3226 17.1744C12.8273 17.3347 13.295 17.532 13.3812 17.606C13.4674 17.6677 13.849 17.8404 14.2306 17.9637C14.9815 18.2227 16.0155 18.938 16.2493 19.3697C16.5448 19.9 16.4463 20.492 15.9539 21.1087C15.6954 21.4293 15.3507 21.713 15.1784 21.7623C14.5999 21.9103 10.5623 20.9977 9.39288 20.455C9.08514 20.3193 8.72816 20.196 8.59276 20.196C8.02651 20.196 5.10913 18.494 4.51827 17.8404C4.03819 17.2977 3.33654 16.1261 3.17652 15.5957C3.09035 15.3121 2.93032 14.8681 2.81954 14.6214C2.53641 13.9554 2.58565 12.5494 2.89339 12.5494C2.95494 12.5494 3.12728 12.6111 3.27499 12.6974ZM34.5045 17.9144C34.8615 18.864 34.8984 19.0614 34.8369 19.863C34.763 20.9853 34.3199 22.009 33.6306 22.6257C31.4689 24.6031 28.837 23.1238 26.5894 24.3646C25.5677 24.9196 25.3092 25.5363 25.1492 27.8796C25.0507 29.1746 25.0138 29.3843 24.7184 29.7666C24.546 30.0009 24.3368 30.1859 24.2506 30.1859C23.6597 30.1859 22.1949 28.5949 20.6685 26.301C19.3883 24.3893 19.3514 24.155 20.2623 23.933C23.9077 22.9861 28.1099 20.498 30.6639 17.6677C31.1932 17.0757 31.9318 15.8424 32.0672 15.2874C32.3568 14.206 34.3285 17.4696 34.5045 17.9144Z" fill="#1874CF" stroke="#1874CF"/>
<path d="M47.06 26V5.6096H52.532L57.9752 15.4592L63.3608 5.6096H68.6312V26H64.5128V11.1104L58.724 21.4496H57.0536L51.1784 11.1104V26H47.06ZM72.3872 26V10.8224H76.4192V26H72.3872ZM74.4032 9.296C73.6544 9.296 73.0496 9.0752 72.5888 8.6336C72.128 8.1728 71.8976 7.5872 71.8976 6.8768C71.8976 6.128 72.1376 5.5232 72.6176 5.0624C73.0976 4.6016 73.7024 4.3712 74.432 4.3712C75.104 4.3712 75.68 4.6016 76.16 5.0624C76.6592 5.504 76.9088 6.0992 76.9088 6.848C76.9088 7.5776 76.6688 8.1728 76.1888 8.6336C75.728 9.0752 75.1328 9.296 74.4032 9.296ZM79.6153 26V10.8224H83.3881L83.5897 12.5792C84.0121 12.0608 84.4921 11.6576 85.0297 11.3696C85.5865 11.0624 86.1433 10.8512 86.7001 10.736C87.2761 10.6208 87.7945 10.5632 88.2553 10.5632C89.7145 10.5632 90.8473 10.88 91.6537 11.5136C92.4793 12.1472 93.0649 13.0016 93.4105 14.0768C93.7753 15.1328 93.9577 16.3136 93.9577 17.6192V26H89.9257V18.1376C89.9257 17.6768 89.8873 17.216 89.8105 16.7552C89.7337 16.2944 89.5897 15.872 89.3785 15.488C89.1865 15.104 88.9081 14.7968 88.5433 14.5664C88.1785 14.336 87.6985 14.2208 87.1033 14.2208C86.3353 14.2208 85.6921 14.4128 85.1737 14.7968C84.6553 15.1808 84.2713 15.6992 84.0217 16.352C83.7721 17.0048 83.6473 17.7248 83.6473 18.512V26H79.6153ZM103.302 26.2016C101.766 26.2016 100.49 25.856 99.472 25.1648C98.4736 24.4544 97.7248 23.5136 97.2256 22.3424C96.7264 21.152 96.4768 19.8368 96.4768 18.3968C96.4768 16.88 96.7456 15.536 97.2832 14.3648C97.8208 13.1744 98.6176 12.2432 99.6736 11.5712C100.73 10.8992 102.045 10.5632 103.619 10.5632C104.157 10.5632 104.685 10.6304 105.203 10.7648C105.741 10.88 106.23 11.0624 106.672 11.312C107.133 11.5424 107.526 11.8496 107.853 12.2336V5.6096H111.885V26H107.968L107.91 24.3008C107.565 24.7424 107.142 25.1072 106.643 25.3952C106.163 25.664 105.645 25.8656 105.088 26C104.531 26.1344 103.936 26.2016 103.302 26.2016ZM104.109 22.5728C104.973 22.5728 105.674 22.3712 106.211 21.968C106.768 21.5648 107.181 21.0464 107.45 20.4128C107.718 19.7792 107.853 19.0976 107.853 18.368C107.853 17.6192 107.718 16.9376 107.45 16.3232C107.2 15.6896 106.797 15.1904 106.24 14.8256C105.702 14.4416 104.992 14.2496 104.109 14.2496C103.226 14.2496 102.515 14.4512 101.978 14.8544C101.44 15.2576 101.056 15.7856 100.826 16.4384C100.614 17.072 100.509 17.7536 100.509 18.4832C100.509 19.0208 100.566 19.5392 100.682 20.0384C100.816 20.5184 101.027 20.9504 101.315 21.3344C101.603 21.7184 101.978 22.0256 102.438 22.256C102.899 22.4672 103.456 22.5728 104.109 22.5728ZM124.326 26.2304C122.234 26.2304 120.448 25.808 118.97 24.9632C117.51 24.0992 116.397 22.8896 115.629 21.3344C114.88 19.7792 114.506 17.9648 114.506 15.8912C114.506 13.7792 114.89 11.936 115.658 10.3616C116.445 8.7872 117.568 7.568 119.027 6.704C120.486 5.8208 122.243 5.3792 124.298 5.3792C125.853 5.3792 127.245 5.648 128.474 6.1856C129.702 6.704 130.691 7.4816 131.44 8.5184C132.208 9.536 132.688 10.7936 132.88 12.2912H128.906C128.656 11.3504 128.147 10.6112 127.379 10.0736C126.63 9.5168 125.632 9.2384 124.384 9.2384C123.002 9.2384 121.898 9.5552 121.072 10.1888C120.266 10.8032 119.68 11.6096 119.315 12.608C118.95 13.5872 118.768 14.624 118.768 15.7184C118.768 16.8512 118.96 17.9264 119.344 18.944C119.728 19.9616 120.333 20.7872 121.158 21.4208C122.003 22.0544 123.107 22.3712 124.47 22.3712C125.277 22.3712 125.997 22.256 126.63 22.0256C127.264 21.776 127.782 21.4208 128.186 20.96C128.608 20.4992 128.896 19.952 129.05 19.3184H133.168C132.995 20.7968 132.496 22.0544 131.67 23.0912C130.845 24.128 129.798 24.9152 128.531 25.4528C127.264 25.9712 125.862 26.2304 124.326 26.2304ZM140.422 26.2016C139.731 26.2016 139.059 26.1152 138.406 25.9424C137.772 25.7504 137.206 25.4624 136.707 25.0784C136.207 24.6944 135.814 24.2144 135.526 23.6384C135.238 23.0624 135.094 22.3904 135.094 21.6224C135.094 20.5856 135.305 19.76 135.727 19.1456C136.15 18.512 136.716 18.032 137.427 17.7056C138.137 17.3792 138.953 17.1584 139.875 17.0432C140.815 16.928 141.785 16.8704 142.783 16.8704H144.972C144.972 16.3136 144.867 15.824 144.655 15.4016C144.463 14.96 144.166 14.624 143.763 14.3936C143.359 14.144 142.841 14.0192 142.207 14.0192C141.804 14.0192 141.411 14.0768 141.027 14.192C140.662 14.288 140.355 14.432 140.105 14.624C139.855 14.816 139.692 15.0656 139.615 15.3728H135.526C135.641 14.528 135.91 13.808 136.332 13.2128C136.755 12.5984 137.283 12.0992 137.916 11.7152C138.55 11.3312 139.241 11.0528 139.99 10.88C140.758 10.688 141.545 10.592 142.351 10.592C144.559 10.592 146.191 11.2256 147.247 12.4928C148.303 13.7408 148.831 15.5168 148.831 17.8208V26H145.203L145.145 24.0416C144.665 24.7136 144.118 25.2032 143.503 25.5104C142.908 25.8176 142.332 26.0096 141.775 26.0864C141.219 26.1632 140.767 26.2016 140.422 26.2016ZM141.343 23.0048C142.015 23.0048 142.63 22.8704 143.187 22.6016C143.743 22.3328 144.185 21.968 144.511 21.5072C144.838 21.0464 145.001 20.528 145.001 19.952V19.5776H142.236C141.833 19.5776 141.439 19.5968 141.055 19.6352C140.691 19.6736 140.355 19.7504 140.047 19.8656C139.759 19.9616 139.529 20.1248 139.356 20.3552C139.183 20.5856 139.097 20.8928 139.097 21.2768C139.097 21.6608 139.193 21.9872 139.385 22.256C139.596 22.5056 139.875 22.6976 140.22 22.832C140.566 22.9472 140.94 23.0048 141.343 23.0048ZM160.621 26.2016C160.122 26.2016 159.594 26.1536 159.037 26.0576C158.499 25.9616 157.962 25.7792 157.424 25.5104C156.906 25.2224 156.416 24.8192 155.955 24.3008L155.927 26H151.981V5.6096H156.013V12.608C156.589 11.9168 157.299 11.408 158.144 11.0816C159.008 10.736 159.901 10.5632 160.823 10.5632C162.32 10.5632 163.549 10.9088 164.509 11.6C165.469 12.272 166.179 13.1936 166.64 14.3648C167.12 15.536 167.36 16.88 167.36 18.3968C167.36 19.8752 167.12 21.2096 166.64 22.4C166.16 23.5712 165.421 24.5024 164.423 25.1936C163.443 25.8656 162.176 26.2016 160.621 26.2016ZM159.757 22.6016C160.698 22.6016 161.427 22.3904 161.946 21.968C162.464 21.5456 162.829 21.008 163.04 20.3552C163.251 19.7024 163.357 19.0208 163.357 18.3104C163.357 17.6 163.242 16.9376 163.011 16.3232C162.781 15.6896 162.397 15.1904 161.859 14.8256C161.341 14.4416 160.64 14.2496 159.757 14.2496C158.951 14.2496 158.259 14.4512 157.683 14.8544C157.127 15.2384 156.704 15.7472 156.416 16.3808C156.128 17.0144 155.984 17.696 155.984 18.4256C155.984 19.1552 156.109 19.8464 156.359 20.4992C156.627 21.1328 157.04 21.6416 157.597 22.0256C158.154 22.4096 158.874 22.6016 159.757 22.6016Z" fill="#222222"/>
</svg>
