<svg width="56" height="264" viewBox="0 0 56 264" fill="none" xmlns="http://www.w3.org/2000/svg">
<path d="M0 8C0 3.58172 3.58172 0 8 0H48C52.4183 0 56 3.58172 56 8V52C56 56.4183 52.4183 60 48 60H8C3.58172 60 0 56.4183 0 52V8Z" fill="#E6E6E6"/>
<path d="M24 25H32M27.0177 10.764L20.2354 16.0391C19.782 16.3917 19.5553 16.5681 19.392 16.7889C19.2474 16.9844 19.1396 17.2048 19.074 17.4391C19 17.7035 19 17.9907 19 18.5651V25.8C19 26.9201 19 27.4801 19.218 27.908C19.4097 28.2843 19.7157 28.5903 20.092 28.782C20.5198 29 21.0799 29 22.2 29H33.8C34.9201 29 35.4802 29 35.908 28.782C36.2843 28.5903 36.5903 28.2843 36.782 27.908C37 27.4801 37 26.9201 37 25.8V18.5651C37 17.9907 37 17.7035 36.926 17.4391C36.8604 17.2048 36.7526 16.9844 36.608 16.7889C36.4447 16.5681 36.218 16.3917 35.7646 16.0391L28.9823 10.764C28.631 10.4907 28.4553 10.3541 28.2613 10.3016C28.0902 10.2553 27.9098 10.2553 27.7387 10.3016C27.5447 10.3541 27.369 10.4907 27.0177 10.764Z" stroke="#222222" stroke-width="2" stroke-linecap="round" stroke-linejoin="round"/>
<path d="M12.496 48V39.516H13.768V43.248H18.016V39.516H19.288V48H18.016V44.412H13.768V48H12.496ZM23.8651 48.072C23.2091 48.072 22.6531 47.94 22.1971 47.676C21.7411 47.404 21.3931 47.024 21.1531 46.536C20.9211 46.048 20.8051 45.484 20.8051 44.844C20.8051 44.196 20.9251 43.632 21.1651 43.152C21.4051 42.664 21.7531 42.284 22.2091 42.012C22.6651 41.732 23.2211 41.592 23.8771 41.592C24.5331 41.592 25.0891 41.732 25.5451 42.012C26.0011 42.284 26.3451 42.664 26.5771 43.152C26.8091 43.64 26.9251 44.208 26.9251 44.856C26.9251 45.488 26.8051 46.048 26.5651 46.536C26.3331 47.024 25.9891 47.404 25.5331 47.676C25.0851 47.94 24.5291 48.072 23.8651 48.072ZM23.8651 46.968C24.2971 46.968 24.6451 46.872 24.9091 46.68C25.1811 46.488 25.3811 46.232 25.5091 45.912C25.6371 45.584 25.7011 45.228 25.7011 44.844C25.7011 44.46 25.6371 44.108 25.5091 43.788C25.3811 43.468 25.1811 43.212 24.9091 43.02C24.6451 42.82 24.2971 42.72 23.8651 42.72C23.4411 42.72 23.0931 42.82 22.8211 43.02C22.5491 43.212 22.3491 43.468 22.2211 43.788C22.1011 44.108 22.0411 44.46 22.0411 44.844C22.0411 45.236 22.1011 45.592 22.2211 45.912C22.3491 46.232 22.5491 46.488 22.8211 46.68C23.0931 46.872 23.4411 46.968 23.8651 46.968ZM28.1935 48V41.676H29.3575L29.4295 42.42C29.5735 42.212 29.7335 42.052 29.9095 41.94C30.0935 41.82 30.2895 41.732 30.4975 41.676C30.7055 41.62 30.9175 41.592 31.1335 41.592C31.5575 41.592 31.9055 41.68 32.1775 41.856C32.4575 42.032 32.6735 42.272 32.8255 42.576C32.9775 42.36 33.1495 42.18 33.3415 42.036C33.5335 41.884 33.7455 41.772 33.9775 41.7C34.2095 41.628 34.4575 41.592 34.7215 41.592C35.1935 41.592 35.5735 41.696 35.8615 41.904C36.1575 42.104 36.3695 42.376 36.4975 42.72C36.6335 43.064 36.7015 43.46 36.7015 43.908V48H35.4535V44.4C35.4535 44.208 35.4455 44.016 35.4295 43.824C35.4135 43.632 35.3655 43.452 35.2855 43.284C35.2135 43.108 35.1055 42.968 34.9615 42.864C34.8255 42.752 34.6295 42.696 34.3735 42.696C34.1255 42.696 33.9175 42.752 33.7495 42.864C33.5895 42.976 33.4575 43.128 33.3535 43.32C33.2575 43.504 33.1855 43.704 33.1375 43.92C33.0975 44.136 33.0775 44.352 33.0775 44.568V48H31.8295V44.388C31.8295 44.204 31.8215 44.016 31.8055 43.824C31.7895 43.632 31.7495 43.452 31.6855 43.284C31.6215 43.108 31.5135 42.968 31.3615 42.864C31.2175 42.752 31.0215 42.696 30.7735 42.696C30.4135 42.696 30.1335 42.8 29.9335 43.008C29.7415 43.208 29.6095 43.456 29.5375 43.752C29.4655 44.04 29.4295 44.316 29.4295 44.58V48H28.1935ZM40.9384 48.072C40.2744 48.072 39.7184 47.936 39.2704 47.664C38.8224 47.392 38.4824 47.016 38.2504 46.536C38.0264 46.048 37.9144 45.488 37.9144 44.856C37.9144 44.216 38.0304 43.652 38.2624 43.164C38.5024 42.676 38.8464 42.292 39.2944 42.012C39.7504 41.732 40.2984 41.592 40.9384 41.592C41.4264 41.592 41.8504 41.684 42.2104 41.868C42.5704 42.044 42.8664 42.284 43.0984 42.588C43.3384 42.892 43.5144 43.232 43.6264 43.608C43.7384 43.976 43.7864 44.36 43.7704 44.76C43.7704 44.848 43.7664 44.932 43.7584 45.012C43.7504 45.092 43.7424 45.176 43.7344 45.264H39.1624C39.1864 45.584 39.2664 45.876 39.4024 46.14C39.5464 46.404 39.7464 46.616 40.0024 46.776C40.2584 46.928 40.5744 47.004 40.9504 47.004C41.1584 47.004 41.3584 46.98 41.5504 46.932C41.7504 46.876 41.9264 46.792 42.0784 46.68C42.2384 46.56 42.3504 46.408 42.4144 46.224H43.6624C43.5584 46.648 43.3704 47 43.0984 47.28C42.8344 47.552 42.5104 47.752 42.1264 47.88C41.7504 48.008 41.3544 48.072 40.9384 48.072ZM39.1864 44.28H42.5464C42.5384 43.968 42.4664 43.692 42.3304 43.452C42.1944 43.204 42.0064 43.012 41.7664 42.876C41.5264 42.732 41.2384 42.66 40.9024 42.66C40.5344 42.66 40.2264 42.736 39.9784 42.888C39.7384 43.04 39.5504 43.24 39.4144 43.488C39.2864 43.728 39.2104 43.992 39.1864 44.28Z" fill="#222222"/>
<path d="M25 93L20 98M31 93L36 98M28 78V80M28 98V93M21.2 93H34.8C35.9201 93 36.4802 93 36.908 92.782C37.2843 92.5903 37.5903 92.2843 37.782 91.908C38 91.4802 38 90.9201 38 89.8V83.2C38 82.0799 38 81.5198 37.782 81.092C37.5903 80.7157 37.2843 80.4097 36.908 80.218C36.4802 80 35.9201 80 34.8 80H21.2C20.0799 80 19.5198 80 19.092 80.218C18.7157 80.4097 18.4097 80.7157 18.218 81.092C18 81.5198 18 82.0799 18 83.2V89.8C18 90.9201 18 91.4802 18.218 91.908C18.4097 92.2843 18.7157 92.5903 19.092 92.782C19.5198 93 20.0799 93 21.2 93Z" stroke="#222222" stroke-width="2" stroke-linecap="round" stroke-linejoin="round"/>
<path d="M8.988 116.096C8.116 116.096 7.384 115.912 6.792 115.544C6.208 115.176 5.768 114.668 5.472 114.02C5.176 113.372 5.028 112.624 5.028 111.776C5.028 110.928 5.176 110.176 5.472 109.52C5.776 108.864 6.22 108.352 6.804 107.984C7.396 107.608 8.128 107.42 9 107.42C9.632 107.42 10.184 107.524 10.656 107.732C11.128 107.932 11.508 108.22 11.796 108.596C12.092 108.964 12.288 109.404 12.384 109.916H11.136C11.016 109.508 10.772 109.184 10.404 108.944C10.036 108.704 9.564 108.584 8.988 108.584C8.348 108.584 7.832 108.732 7.44 109.028C7.056 109.324 6.776 109.712 6.6 110.192C6.424 110.664 6.336 111.176 6.336 111.728C6.336 112.296 6.428 112.824 6.612 113.312C6.796 113.8 7.088 114.192 7.488 114.488C7.888 114.784 8.4 114.932 9.024 114.932C9.408 114.932 9.748 114.88 10.044 114.776C10.34 114.664 10.588 114.508 10.788 114.308C10.988 114.1 11.124 113.86 11.196 113.588H12.528C12.424 114.108 12.212 114.556 11.892 114.932C11.572 115.308 11.168 115.596 10.68 115.796C10.192 115.996 9.628 116.096 8.988 116.096ZM16.5604 116.072C15.9044 116.072 15.3484 115.94 14.8924 115.676C14.4364 115.404 14.0884 115.024 13.8484 114.536C13.6164 114.048 13.5004 113.484 13.5004 112.844C13.5004 112.196 13.6204 111.632 13.8604 111.152C14.1004 110.664 14.4484 110.284 14.9044 110.012C15.3604 109.732 15.9164 109.592 16.5724 109.592C17.2284 109.592 17.7844 109.732 18.2404 110.012C18.6964 110.284 19.0404 110.664 19.2724 111.152C19.5044 111.64 19.6204 112.208 19.6204 112.856C19.6204 113.488 19.5004 114.048 19.2604 114.536C19.0284 115.024 18.6844 115.404 18.2284 115.676C17.7804 115.94 17.2244 116.072 16.5604 116.072ZM16.5604 114.968C16.9924 114.968 17.3404 114.872 17.6044 114.68C17.8764 114.488 18.0764 114.232 18.2044 113.912C18.3324 113.584 18.3964 113.228 18.3964 112.844C18.3964 112.46 18.3324 112.108 18.2044 111.788C18.0764 111.468 17.8764 111.212 17.6044 111.02C17.3404 110.82 16.9924 110.72 16.5604 110.72C16.1364 110.72 15.7884 110.82 15.5164 111.02C15.2444 111.212 15.0444 111.468 14.9164 111.788C14.7964 112.108 14.7364 112.46 14.7364 112.844C14.7364 113.236 14.7964 113.592 14.9164 113.912C15.0444 114.232 15.2444 114.488 15.5164 114.68C15.7884 114.872 16.1364 114.968 16.5604 114.968ZM23.6008 116.072C22.7128 116.072 22.0328 115.84 21.5608 115.376C21.0968 114.904 20.8648 114.188 20.8648 113.228V109.676H22.1008V113.156C22.1008 113.532 22.1528 113.856 22.2568 114.128C22.3688 114.4 22.5368 114.608 22.7608 114.752C22.9848 114.896 23.2688 114.968 23.6128 114.968C23.9728 114.968 24.2608 114.896 24.4768 114.752C24.7008 114.6 24.8608 114.388 24.9568 114.116C25.0608 113.844 25.1128 113.524 25.1128 113.156V109.676H26.3488V113.228C26.3488 114.204 26.1088 114.924 25.6288 115.388C25.1568 115.844 24.4808 116.072 23.6008 116.072ZM27.838 116V109.676H29.002L29.062 110.588C29.222 110.34 29.406 110.144 29.614 110C29.822 109.856 30.05 109.752 30.298 109.688C30.546 109.624 30.806 109.592 31.078 109.592C31.15 109.592 31.218 109.592 31.282 109.592C31.346 109.592 31.406 109.592 31.462 109.592V110.78H31.078C30.622 110.78 30.242 110.872 29.938 111.056C29.642 111.24 29.422 111.496 29.278 111.824C29.142 112.152 29.074 112.528 29.074 112.952V116H27.838ZM34.6434 116.072C34.3474 116.072 34.0514 116.044 33.7554 115.988C33.4594 115.932 33.1834 115.832 32.9274 115.688C32.6714 115.544 32.4554 115.352 32.2794 115.112C32.1034 114.864 31.9914 114.56 31.9434 114.2H33.2034C33.2674 114.392 33.3794 114.548 33.5394 114.668C33.7074 114.788 33.8914 114.876 34.0914 114.932C34.2994 114.988 34.5034 115.016 34.7034 115.016C34.8234 115.016 34.9554 115.008 35.0994 114.992C35.2514 114.976 35.3954 114.94 35.5314 114.884C35.6674 114.828 35.7794 114.748 35.8674 114.644C35.9554 114.532 35.9994 114.384 35.9994 114.2C35.9994 114.056 35.9594 113.936 35.8794 113.84C35.8074 113.744 35.7034 113.668 35.5674 113.612C35.4394 113.548 35.2834 113.5 35.0994 113.468C34.7394 113.388 34.3514 113.312 33.9354 113.24C33.5274 113.16 33.1674 113.024 32.8554 112.832C32.7434 112.76 32.6434 112.68 32.5554 112.592C32.4674 112.496 32.3914 112.388 32.3274 112.268C32.2634 112.148 32.2154 112.02 32.1834 111.884C32.1514 111.748 32.1354 111.6 32.1354 111.44C32.1354 111.112 32.1994 110.832 32.3274 110.6C32.4634 110.368 32.6474 110.18 32.8794 110.036C33.1114 109.884 33.3754 109.772 33.6714 109.7C33.9674 109.628 34.2794 109.592 34.6074 109.592C35.0314 109.592 35.4154 109.66 35.7594 109.796C36.1034 109.932 36.3874 110.132 36.6114 110.396C36.8354 110.66 36.9674 110.992 37.0074 111.392H35.8434C35.7954 111.176 35.6554 111.004 35.4234 110.876C35.1994 110.74 34.9154 110.672 34.5714 110.672C34.4514 110.672 34.3194 110.68 34.1754 110.696C34.0394 110.712 33.9074 110.748 33.7794 110.804C33.6514 110.86 33.5474 110.94 33.4674 111.044C33.3874 111.14 33.3474 111.268 33.3474 111.428C33.3474 111.58 33.3834 111.708 33.4554 111.812C33.5354 111.916 33.6474 112 33.7914 112.064C33.9434 112.128 34.1154 112.18 34.3074 112.22C34.5794 112.284 34.8714 112.344 35.1834 112.4C35.5034 112.456 35.7634 112.516 35.9634 112.58C36.2274 112.652 36.4514 112.756 36.6354 112.892C36.8274 113.028 36.9714 113.2 37.0674 113.408C37.1714 113.616 37.2234 113.868 37.2234 114.164C37.2234 114.548 37.1474 114.864 36.9954 115.112C36.8434 115.352 36.6394 115.544 36.3834 115.688C36.1354 115.832 35.8554 115.932 35.5434 115.988C35.2394 116.044 34.9394 116.072 34.6434 116.072ZM41.1806 116.072C40.5166 116.072 39.9606 115.936 39.5126 115.664C39.0646 115.392 38.7246 115.016 38.4926 114.536C38.2686 114.048 38.1566 113.488 38.1566 112.856C38.1566 112.216 38.2726 111.652 38.5046 111.164C38.7446 110.676 39.0886 110.292 39.5366 110.012C39.9926 109.732 40.5406 109.592 41.1806 109.592C41.6686 109.592 42.0926 109.684 42.4526 109.868C42.8126 110.044 43.1086 110.284 43.3406 110.588C43.5806 110.892 43.7566 111.232 43.8686 111.608C43.9806 111.976 44.0286 112.36 44.0126 112.76C44.0126 112.848 44.0086 112.932 44.0006 113.012C43.9926 113.092 43.9846 113.176 43.9766 113.264H39.4046C39.4286 113.584 39.5086 113.876 39.6446 114.14C39.7886 114.404 39.9886 114.616 40.2446 114.776C40.5006 114.928 40.8166 115.004 41.1926 115.004C41.4006 115.004 41.6006 114.98 41.7926 114.932C41.9926 114.876 42.1686 114.792 42.3206 114.68C42.4806 114.56 42.5926 114.408 42.6566 114.224H43.9046C43.8006 114.648 43.6126 115 43.3406 115.28C43.0766 115.552 42.7526 115.752 42.3686 115.88C41.9926 116.008 41.5966 116.072 41.1806 116.072ZM39.4286 112.28H42.7886C42.7806 111.968 42.7086 111.692 42.5726 111.452C42.4366 111.204 42.2486 111.012 42.0086 110.876C41.7686 110.732 41.4806 110.66 41.1446 110.66C40.7766 110.66 40.4686 110.736 40.2206 110.888C39.9806 111.04 39.7926 111.24 39.6566 111.488C39.5286 111.728 39.4526 111.992 39.4286 112.28ZM47.6513 116.072C47.3553 116.072 47.0593 116.044 46.7633 115.988C46.4673 115.932 46.1913 115.832 45.9353 115.688C45.6793 115.544 45.4633 115.352 45.2873 115.112C45.1113 114.864 44.9993 114.56 44.9513 114.2H46.2113C46.2753 114.392 46.3873 114.548 46.5473 114.668C46.7153 114.788 46.8993 114.876 47.0993 114.932C47.3073 114.988 47.5113 115.016 47.7113 115.016C47.8313 115.016 47.9633 115.008 48.1073 114.992C48.2593 114.976 48.4033 114.94 48.5393 114.884C48.6753 114.828 48.7873 114.748 48.8753 114.644C48.9633 114.532 49.0073 114.384 49.0073 114.2C49.0073 114.056 48.9673 113.936 48.8873 113.84C48.8153 113.744 48.7113 113.668 48.5753 113.612C48.4473 113.548 48.2913 113.5 48.1073 113.468C47.7473 113.388 47.3593 113.312 46.9433 113.24C46.5353 113.16 46.1753 113.024 45.8633 112.832C45.7513 112.76 45.6513 112.68 45.5633 112.592C45.4753 112.496 45.3993 112.388 45.3353 112.268C45.2713 112.148 45.2233 112.02 45.1913 111.884C45.1593 111.748 45.1433 111.6 45.1433 111.44C45.1433 111.112 45.2073 110.832 45.3353 110.6C45.4713 110.368 45.6553 110.18 45.8873 110.036C46.1193 109.884 46.3833 109.772 46.6793 109.7C46.9753 109.628 47.2873 109.592 47.6152 109.592C48.0393 109.592 48.4233 109.66 48.7673 109.796C49.1113 109.932 49.3953 110.132 49.6193 110.396C49.8433 110.66 49.9753 110.992 50.0153 111.392H48.8513C48.8033 111.176 48.6633 111.004 48.4313 110.876C48.2073 110.74 47.9233 110.672 47.5793 110.672C47.4593 110.672 47.3273 110.68 47.1833 110.696C47.0473 110.712 46.9153 110.748 46.7873 110.804C46.6593 110.86 46.5553 110.94 46.4753 111.044C46.3953 111.14 46.3553 111.268 46.3553 111.428C46.3553 111.58 46.3913 111.708 46.4633 111.812C46.5433 111.916 46.6553 112 46.7993 112.064C46.9513 112.128 47.1233 112.18 47.3153 112.22C47.5873 112.284 47.8793 112.344 48.1913 112.4C48.5113 112.456 48.7713 112.516 48.9713 112.58C49.2353 112.652 49.4593 112.756 49.6433 112.892C49.8353 113.028 49.9793 113.2 50.0753 113.408C50.1793 113.616 50.2313 113.868 50.2313 114.164C50.2313 114.548 50.1553 114.864 50.0033 115.112C49.8513 115.352 49.6473 115.544 49.3913 115.688C49.1433 115.832 48.8633 115.932 48.5513 115.988C48.2473 116.044 47.9473 116.072 47.6513 116.072Z" fill="#222222"/>
<path d="M21 154V160.011C21 160.37 21 160.55 21.0547 160.708C21.103 160.848 21.1819 160.976 21.2856 161.082C21.4029 161.201 21.5634 161.282 21.8845 161.442L27.2845 164.142C27.5468 164.273 27.678 164.339 27.8156 164.365C27.9375 164.388 28.0625 164.388 28.1844 164.365C28.322 164.339 28.4532 164.273 28.7155 164.142L34.1155 161.442C34.4366 161.282 34.5971 161.201 34.7144 161.082C34.8181 160.976 34.897 160.848 34.9453 160.708C35 160.55 35 160.37 35 160.011V154M18 152.5L27.6422 147.679C27.7734 147.613 27.839 147.581 27.9078 147.568C27.9687 147.556 28.0313 147.556 28.0922 147.568C28.161 147.581 28.2266 147.613 28.3578 147.679L38 152.5L28.3578 157.321C28.2266 157.387 28.161 157.42 28.0922 157.432C28.0313 157.444 27.9687 157.444 27.9078 157.432C27.839 157.42 27.7734 157.387 27.6422 157.321L18 152.5Z" stroke="#222222" stroke-width="2" stroke-linecap="round" stroke-linejoin="round"/>
<path d="M12 184.096C11.12 184.096 10.384 183.912 9.792 183.544C9.208 183.176 8.768 182.668 8.472 182.02C8.176 181.364 8.028 180.616 8.028 179.776C8.028 179.144 8.108 178.564 8.268 178.036C8.436 177.5 8.684 177.036 9.012 176.644C9.34 176.252 9.748 175.952 10.236 175.744C10.732 175.528 11.304 175.42 11.952 175.42C12.584 175.42 13.14 175.52 13.62 175.72C14.1 175.912 14.496 176.192 14.808 176.56C15.128 176.928 15.344 177.372 15.456 177.892H14.112C14.04 177.612 13.904 177.376 13.704 177.184C13.512 176.992 13.268 176.844 12.972 176.74C12.684 176.636 12.356 176.584 11.988 176.584C11.508 176.584 11.1 176.668 10.764 176.836C10.428 177.004 10.152 177.236 9.936 177.532C9.728 177.82 9.576 178.156 9.48 178.54C9.384 178.924 9.336 179.332 9.336 179.764C9.336 180.34 9.428 180.868 9.612 181.348C9.796 181.828 10.084 182.212 10.476 182.5C10.868 182.788 11.38 182.932 12.012 182.932C12.5 182.932 12.92 182.848 13.272 182.68C13.624 182.504 13.9 182.256 14.1 181.936C14.3 181.608 14.404 181.212 14.412 180.748H11.784V179.632H15.66V180.256C15.66 181.032 15.516 181.708 15.228 182.284C14.94 182.86 14.524 183.308 13.98 183.628C13.436 183.94 12.776 184.096 12 184.096ZM16.9396 184V177.676H18.1036L18.1636 178.588C18.3236 178.34 18.5076 178.144 18.7156 178C18.9236 177.856 19.1516 177.752 19.3996 177.688C19.6476 177.624 19.9076 177.592 20.1796 177.592C20.2516 177.592 20.3196 177.592 20.3836 177.592C20.4476 177.592 20.5076 177.592 20.5636 177.592V178.78H20.1796C19.7236 178.78 19.3436 178.872 19.0396 179.056C18.7436 179.24 18.5236 179.496 18.3796 179.824C18.2436 180.152 18.1756 180.528 18.1756 180.952V184H16.9396ZM24.201 184.072C23.545 184.072 22.989 183.94 22.533 183.676C22.077 183.404 21.729 183.024 21.489 182.536C21.257 182.048 21.141 181.484 21.141 180.844C21.141 180.196 21.261 179.632 21.501 179.152C21.741 178.664 22.089 178.284 22.545 178.012C23.001 177.732 23.557 177.592 24.213 177.592C24.869 177.592 25.425 177.732 25.881 178.012C26.337 178.284 26.681 178.664 26.913 179.152C27.145 179.64 27.261 180.208 27.261 180.856C27.261 181.488 27.141 182.048 26.901 182.536C26.669 183.024 26.325 183.404 25.869 183.676C25.421 183.94 24.865 184.072 24.201 184.072ZM24.201 182.968C24.633 182.968 24.981 182.872 25.245 182.68C25.517 182.488 25.717 182.232 25.845 181.912C25.973 181.584 26.037 181.228 26.037 180.844C26.037 180.46 25.973 180.108 25.845 179.788C25.717 179.468 25.517 179.212 25.245 179.02C24.981 178.82 24.633 178.72 24.201 178.72C23.777 178.72 23.429 178.82 23.157 179.02C22.885 179.212 22.685 179.468 22.557 179.788C22.437 180.108 22.377 180.46 22.377 180.844C22.377 181.236 22.437 181.592 22.557 181.912C22.685 182.232 22.885 182.488 23.157 182.68C23.429 182.872 23.777 182.968 24.201 182.968ZM31.2414 184.072C30.3534 184.072 29.6734 183.84 29.2014 183.376C28.7374 182.904 28.5054 182.188 28.5054 181.228V177.676H29.7414V181.156C29.7414 181.532 29.7934 181.856 29.8974 182.128C30.0094 182.4 30.1774 182.608 30.4014 182.752C30.6254 182.896 30.9094 182.968 31.2534 182.968C31.6134 182.968 31.9014 182.896 32.1174 182.752C32.3414 182.6 32.5014 182.388 32.5974 182.116C32.7014 181.844 32.7534 181.524 32.7534 181.156V177.676H33.9894V181.228C33.9894 182.204 33.7494 182.924 33.2694 183.388C32.7974 183.844 32.1214 184.072 31.2414 184.072ZM35.4787 186.304V177.676H36.6547L36.7147 178.576C36.9387 178.248 37.2307 178.004 37.5907 177.844C37.9507 177.676 38.3427 177.592 38.7667 177.592C39.3987 177.592 39.9187 177.736 40.3267 178.024C40.7347 178.304 41.0387 178.692 41.2387 179.188C41.4387 179.676 41.5387 180.224 41.5387 180.832C41.5387 181.456 41.4347 182.012 41.2267 182.5C41.0267 182.988 40.7147 183.372 40.2907 183.652C39.8747 183.932 39.3467 184.072 38.7067 184.072C38.4027 184.072 38.1227 184.04 37.8667 183.976C37.6187 183.912 37.3987 183.82 37.2067 183.7C37.0227 183.572 36.8587 183.424 36.7147 183.256V186.304H35.4787ZM38.5507 182.968C38.9827 182.968 39.3267 182.872 39.5827 182.68C39.8387 182.48 40.0227 182.22 40.1347 181.9C40.2467 181.58 40.3027 181.232 40.3027 180.856C40.3027 180.464 40.2427 180.108 40.1227 179.788C40.0107 179.46 39.8227 179.2 39.5587 179.008C39.3027 178.808 38.9587 178.708 38.5267 178.708C38.1347 178.708 37.8027 178.808 37.5307 179.008C37.2587 179.2 37.0507 179.46 36.9067 179.788C36.7707 180.116 36.7027 180.472 36.7027 180.856C36.7027 181.248 36.7667 181.608 36.8947 181.936C37.0307 182.256 37.2347 182.508 37.5067 182.692C37.7867 182.876 38.1347 182.968 38.5507 182.968ZM45.1786 184.072C44.8826 184.072 44.5866 184.044 44.2906 183.988C43.9946 183.932 43.7186 183.832 43.4626 183.688C43.2066 183.544 42.9906 183.352 42.8146 183.112C42.6386 182.864 42.5266 182.56 42.4786 182.2H43.7386C43.8026 182.392 43.9146 182.548 44.0746 182.668C44.2426 182.788 44.4266 182.876 44.6266 182.932C44.8346 182.988 45.0386 183.016 45.2386 183.016C45.3586 183.016 45.4906 183.008 45.6346 182.992C45.7866 182.976 45.9306 182.94 46.0666 182.884C46.2026 182.828 46.3146 182.748 46.4026 182.644C46.4906 182.532 46.5346 182.384 46.5346 182.2C46.5346 182.056 46.4946 181.936 46.4146 181.84C46.3426 181.744 46.2386 181.668 46.1026 181.612C45.9746 181.548 45.8186 181.5 45.6346 181.468C45.2746 181.388 44.8866 181.312 44.4706 181.24C44.0626 181.16 43.7026 181.024 43.3906 180.832C43.2786 180.76 43.1786 180.68 43.0906 180.592C43.0026 180.496 42.9266 180.388 42.8626 180.268C42.7986 180.148 42.7506 180.02 42.7186 179.884C42.6866 179.748 42.6706 179.6 42.6706 179.44C42.6706 179.112 42.7346 178.832 42.8626 178.6C42.9986 178.368 43.1826 178.18 43.4146 178.036C43.6466 177.884 43.9106 177.772 44.2066 177.7C44.5026 177.628 44.8146 177.592 45.1426 177.592C45.5666 177.592 45.9506 177.66 46.2946 177.796C46.6386 177.932 46.9226 178.132 47.1466 178.396C47.3706 178.66 47.5026 178.992 47.5426 179.392H46.3786C46.3306 179.176 46.1906 179.004 45.9586 178.876C45.7346 178.74 45.4506 178.672 45.1066 178.672C44.9866 178.672 44.8546 178.68 44.7106 178.696C44.5746 178.712 44.4426 178.748 44.3146 178.804C44.1866 178.86 44.0826 178.94 44.0026 179.044C43.9226 179.14 43.8826 179.268 43.8826 179.428C43.8826 179.58 43.9186 179.708 43.9906 179.812C44.0706 179.916 44.1826 180 44.3266 180.064C44.4786 180.128 44.6506 180.18 44.8426 180.22C45.1146 180.284 45.4066 180.344 45.7186 180.4C46.0386 180.456 46.2986 180.516 46.4986 180.58C46.7626 180.652 46.9866 180.756 47.1706 180.892C47.3626 181.028 47.5066 181.2 47.6026 181.408C47.7066 181.616 47.7586 181.868 47.7586 182.164C47.7586 182.548 47.6826 182.864 47.5306 183.112C47.3786 183.352 47.1746 183.544 46.9186 183.688C46.6706 183.832 46.3906 183.932 46.0786 183.988C45.7746 184.044 45.4746 184.072 45.1786 184.072Z" fill="#222222"/>
<path d="M38 233V231C38 229.136 36.7252 227.57 35 227.126M31.5 215.291C32.9659 215.884 34 217.321 34 219C34 220.679 32.9659 222.116 31.5 222.709M33 233C33 231.136 33 230.204 32.6955 229.469C32.2895 228.489 31.5108 227.71 30.5307 227.304C29.7956 227 28.8638 227 27 227H24C22.1362 227 21.2044 227 20.4693 227.304C19.4892 227.71 18.7105 228.489 18.3045 229.469C18 230.204 18 231.136 18 233M29.5 219C29.5 221.209 27.7091 223 25.5 223C23.2909 223 21.5 221.209 21.5 219C21.5 216.791 23.2909 215 25.5 215C27.7091 215 29.5 216.791 29.5 219Z" stroke="#222222" stroke-width="2" stroke-linecap="round" stroke-linejoin="round"/>
<path d="M5.604 252.096C5.052 252.096 4.532 252.016 4.044 251.856C3.556 251.696 3.144 251.436 2.808 251.076C2.472 250.716 2.248 250.24 2.136 249.648H3.444C3.548 249.984 3.716 250.248 3.948 250.44C4.18 250.624 4.448 250.752 4.752 250.824C5.064 250.896 5.376 250.932 5.688 250.932C5.984 250.932 6.26 250.892 6.516 250.812C6.78 250.732 6.996 250.6 7.164 250.416C7.332 250.232 7.416 249.992 7.416 249.696C7.416 249.472 7.372 249.288 7.284 249.144C7.196 249 7.072 248.884 6.912 248.796C6.76 248.7 6.576 248.624 6.36 248.568C6.112 248.488 5.844 248.42 5.556 248.364C5.276 248.308 4.996 248.244 4.716 248.172C4.444 248.1 4.188 248.008 3.948 247.896C3.748 247.816 3.552 247.72 3.36 247.608C3.176 247.488 3.016 247.348 2.88 247.188C2.744 247.02 2.632 246.824 2.544 246.6C2.464 246.376 2.424 246.12 2.424 245.832C2.424 245.448 2.484 245.12 2.604 244.848C2.732 244.576 2.896 244.348 3.096 244.164C3.304 243.98 3.54 243.836 3.804 243.732C4.076 243.62 4.36 243.54 4.656 243.492C4.952 243.444 5.24 243.42 5.52 243.42C6.032 243.42 6.504 243.5 6.936 243.66C7.368 243.82 7.724 244.076 8.004 244.428C8.292 244.772 8.448 245.228 8.472 245.796H7.236C7.204 245.492 7.1 245.252 6.924 245.076C6.756 244.892 6.544 244.764 6.288 244.692C6.032 244.612 5.76 244.572 5.472 244.572C5.264 244.572 5.056 244.592 4.848 244.632C4.64 244.664 4.448 244.728 4.272 244.824C4.104 244.912 3.968 245.032 3.864 245.184C3.768 245.336 3.72 245.524 3.72 245.748C3.72 245.94 3.76 246.112 3.84 246.264C3.92 246.408 4.032 246.532 4.176 246.636C4.328 246.732 4.496 246.816 4.68 246.888C5.016 247.016 5.384 247.116 5.784 247.188C6.184 247.252 6.56 247.344 6.912 247.464C7.168 247.544 7.408 247.644 7.632 247.764C7.856 247.876 8.048 248.016 8.208 248.184C8.368 248.344 8.492 248.536 8.58 248.76C8.668 248.976 8.712 249.228 8.712 249.516C8.712 249.988 8.628 250.392 8.46 250.728C8.292 251.056 8.064 251.32 7.776 251.52C7.488 251.72 7.156 251.868 6.78 251.964C6.404 252.052 6.012 252.096 5.604 252.096ZM12.5673 252.072C11.8873 252.072 11.3993 251.888 11.1033 251.52C10.8153 251.144 10.6713 250.62 10.6713 249.948V246.78H9.66328V245.676H10.6713V243.84H11.9073V245.676H13.8393V246.78H11.9073V249.744C11.9073 249.968 11.9273 250.172 11.9673 250.356C12.0153 250.54 12.1033 250.684 12.2313 250.788C12.3593 250.892 12.5433 250.948 12.7833 250.956C12.9673 250.956 13.1273 250.924 13.2633 250.86C13.4073 250.796 13.5233 250.724 13.6113 250.644L14.0913 251.568C13.9393 251.688 13.7793 251.788 13.6113 251.868C13.4513 251.94 13.2833 251.992 13.1073 252.024C12.9313 252.056 12.7513 252.072 12.5673 252.072ZM17.6946 252.072C16.8066 252.072 16.1266 251.84 15.6546 251.376C15.1906 250.904 14.9586 250.188 14.9586 249.228V245.676H16.1946V249.156C16.1946 249.532 16.2466 249.856 16.3506 250.128C16.4626 250.4 16.6306 250.608 16.8546 250.752C17.0786 250.896 17.3626 250.968 17.7066 250.968C18.0666 250.968 18.3546 250.896 18.5706 250.752C18.7946 250.6 18.9546 250.388 19.0506 250.116C19.1546 249.844 19.2066 249.524 19.2066 249.156V245.676H20.4426V249.228C20.4426 250.204 20.2026 250.924 19.7226 251.388C19.2506 251.844 18.5746 252.072 17.6946 252.072ZM24.4878 252.072C23.8558 252.072 23.3318 251.932 22.9158 251.652C22.5078 251.364 22.1998 250.976 21.9918 250.488C21.7918 250 21.6918 249.452 21.6918 248.844C21.6918 248.228 21.7958 247.676 22.0038 247.188C22.2118 246.692 22.5278 246.304 22.9518 246.024C23.3758 245.736 23.9118 245.592 24.5598 245.592C24.7998 245.592 25.0398 245.62 25.2798 245.676C25.5278 245.732 25.7558 245.82 25.9638 245.94C26.1798 246.052 26.3638 246.204 26.5158 246.396V243.516H27.7518V252H26.5638L26.5158 251.136C26.3718 251.352 26.1918 251.532 25.9758 251.676C25.7678 251.812 25.5358 251.912 25.2798 251.976C25.0238 252.04 24.7598 252.072 24.4878 252.072ZM24.6918 250.968C25.0998 250.968 25.4358 250.868 25.6998 250.668C25.9718 250.468 26.1758 250.204 26.3118 249.876C26.4478 249.548 26.5158 249.192 26.5158 248.808C26.5158 248.416 26.4478 248.064 26.3118 247.752C26.1838 247.432 25.9838 247.18 25.7118 246.996C25.4478 246.804 25.1078 246.708 24.6918 246.708C24.2598 246.708 23.9158 246.808 23.6598 247.008C23.4038 247.2 23.2158 247.46 23.0958 247.788C22.9838 248.116 22.9278 248.476 22.9278 248.868C22.9278 249.156 22.9598 249.428 23.0238 249.684C23.0878 249.932 23.1878 250.156 23.3238 250.356C23.4678 250.548 23.6518 250.7 23.8758 250.812C24.0998 250.916 24.3718 250.968 24.6918 250.968ZM32.0517 252.072C31.3877 252.072 30.8317 251.936 30.3837 251.664C29.9357 251.392 29.5957 251.016 29.3637 250.536C29.1397 250.048 29.0277 249.488 29.0277 248.856C29.0277 248.216 29.1437 247.652 29.3757 247.164C29.6157 246.676 29.9597 246.292 30.4077 246.012C30.8637 245.732 31.4117 245.592 32.0517 245.592C32.5397 245.592 32.9637 245.684 33.3237 245.868C33.6837 246.044 33.9797 246.284 34.2117 246.588C34.4517 246.892 34.6277 247.232 34.7397 247.608C34.8517 247.976 34.8997 248.36 34.8837 248.76C34.8837 248.848 34.8797 248.932 34.8717 249.012C34.8637 249.092 34.8557 249.176 34.8477 249.264H30.2757C30.2997 249.584 30.3797 249.876 30.5157 250.14C30.6597 250.404 30.8597 250.616 31.1157 250.776C31.3717 250.928 31.6877 251.004 32.0637 251.004C32.2717 251.004 32.4717 250.98 32.6637 250.932C32.8637 250.876 33.0397 250.792 33.1917 250.68C33.3517 250.56 33.4637 250.408 33.5277 250.224H34.7757C34.6717 250.648 34.4837 251 34.2117 251.28C33.9477 251.552 33.6237 251.752 33.2397 251.88C32.8637 252.008 32.4677 252.072 32.0517 252.072ZM30.2997 248.28H33.6597C33.6517 247.968 33.5797 247.692 33.4437 247.452C33.3077 247.204 33.1197 247.012 32.8797 246.876C32.6397 246.732 32.3517 246.66 32.0157 246.66C31.6477 246.66 31.3397 246.736 31.0917 246.888C30.8517 247.04 30.6637 247.24 30.5277 247.488C30.3997 247.728 30.3237 247.992 30.2997 248.28ZM36.1583 252V245.676H37.3343L37.3943 246.564C37.5543 246.332 37.7463 246.148 37.9703 246.012C38.1943 245.868 38.4343 245.764 38.6903 245.7C38.9463 245.628 39.1943 245.592 39.4343 245.592C40.0423 245.592 40.5183 245.724 40.8623 245.988C41.2143 246.244 41.4623 246.592 41.6063 247.032C41.7583 247.464 41.8343 247.956 41.8343 248.508V252H40.5863V248.76C40.5863 248.504 40.5703 248.252 40.5383 248.004C40.5063 247.756 40.4383 247.536 40.3343 247.344C40.2383 247.144 40.0983 246.988 39.9143 246.876C39.7303 246.756 39.4823 246.696 39.1703 246.696C38.7863 246.696 38.4623 246.8 38.1983 247.008C37.9343 247.216 37.7343 247.496 37.5983 247.848C37.4623 248.2 37.3943 248.596 37.3943 249.036V252H36.1583ZM45.7548 252.072C45.0748 252.072 44.5868 251.888 44.2908 251.52C44.0028 251.144 43.8588 250.62 43.8588 249.948V246.78H42.8508V245.676H43.8588V243.84H45.0948V245.676H47.0268V246.78H45.0948V249.744C45.0948 249.968 45.1148 250.172 45.1548 250.356C45.2028 250.54 45.2908 250.684 45.4188 250.788C45.5468 250.892 45.7308 250.948 45.9708 250.956C46.1548 250.956 46.3148 250.924 46.4508 250.86C46.5948 250.796 46.7108 250.724 46.7988 250.644L47.2788 251.568C47.1268 251.688 46.9668 251.788 46.7988 251.868C46.6388 251.94 46.4708 251.992 46.2948 252.024C46.1188 252.056 45.9388 252.072 45.7548 252.072ZM50.5341 252.072C50.2381 252.072 49.9421 252.044 49.6461 251.988C49.3501 251.932 49.0741 251.832 48.8181 251.688C48.5621 251.544 48.3461 251.352 48.1701 251.112C47.9941 250.864 47.8821 250.56 47.8341 250.2H49.0941C49.1581 250.392 49.2701 250.548 49.4301 250.668C49.5981 250.788 49.7821 250.876 49.9821 250.932C50.1901 250.988 50.3941 251.016 50.5941 251.016C50.7141 251.016 50.8461 251.008 50.9901 250.992C51.1421 250.976 51.2861 250.94 51.4221 250.884C51.5581 250.828 51.6701 250.748 51.7581 250.644C51.8461 250.532 51.8901 250.384 51.8901 250.2C51.8901 250.056 51.8501 249.936 51.7701 249.84C51.6981 249.744 51.5941 249.668 51.4581 249.612C51.3301 249.548 51.1741 249.5 50.9901 249.468C50.6301 249.388 50.2421 249.312 49.8261 249.24C49.4181 249.16 49.0581 249.024 48.7461 248.832C48.6341 248.76 48.5341 248.68 48.4461 248.592C48.3581 248.496 48.2821 248.388 48.2181 248.268C48.1541 248.148 48.1061 248.02 48.0741 247.884C48.0421 247.748 48.0261 247.6 48.0261 247.44C48.0261 247.112 48.0901 246.832 48.2181 246.6C48.3541 246.368 48.5381 246.18 48.7701 246.036C49.0021 245.884 49.2661 245.772 49.5621 245.7C49.8581 245.628 50.1701 245.592 50.4981 245.592C50.9221 245.592 51.3061 245.66 51.6501 245.796C51.9941 245.932 52.2781 246.132 52.5021 246.396C52.7261 246.66 52.8581 246.992 52.8981 247.392H51.7341C51.6861 247.176 51.5461 247.004 51.3141 246.876C51.0901 246.74 50.8061 246.672 50.4621 246.672C50.3421 246.672 50.2101 246.68 50.0661 246.696C49.9301 246.712 49.7981 246.748 49.6701 246.804C49.5421 246.86 49.4381 246.94 49.3581 247.044C49.2781 247.14 49.2381 247.268 49.2381 247.428C49.2381 247.58 49.2741 247.708 49.3461 247.812C49.4261 247.916 49.5381 248 49.6821 248.064C49.8341 248.128 50.0061 248.18 50.1981 248.22C50.4701 248.284 50.7621 248.344 51.0741 248.4C51.3941 248.456 51.6541 248.516 51.8541 248.58C52.1181 248.652 52.3421 248.756 52.5261 248.892C52.7181 249.028 52.8621 249.2 52.9581 249.408C53.0621 249.616 53.1141 249.868 53.1141 250.164C53.1141 250.548 53.0381 250.864 52.8861 251.112C52.7341 251.352 52.5301 251.544 52.2741 251.688C52.0261 251.832 51.7461 251.932 51.4341 251.988C51.1301 252.044 50.8301 252.072 50.5341 252.072Z" fill="#222222"/>
</svg>
